<svg enable-background="new 0 0 90.186 65.5" height="270.80128" viewBox="0 0 90.186 65.5" width="369.274473" xmlns="http://www.w3.org/2000/svg"><path clip-rule="evenodd" d="m0 0h90.186v65.5h-90.186z" fill="#552e69" fill-rule="evenodd"/><path clip-rule="evenodd" d="m67.319 45.588h-16.498l18.695-42.295 11.016-.061s6.93 2.183 7.217 7.893c.562 11.121-11.704 13.853-11.719 13.855.641-.142 2.232 1.533 2.594 1.912 5.102 5.352.586 12.891-4.449 16.24-1.85 1.231-4.591 2.456-6.856 2.456z" fill="#6ebcd6" fill-rule="evenodd"/><path clip-rule="evenodd" d="m1.694 45.588 45.323-42.295-12.642 28.106-14.683 14.189z" fill="#0086a7" fill-rule="evenodd"/><path clip-rule="evenodd" d="m30.571 45.588 18.697-42.295h16.498l-18.696 42.295z" fill="#0086a7" fill-rule="evenodd"/><g fill="#fff"><path d="m11.958 58.562h-2.104l-.83-2.188h-3.887l-.791 2.188h-2.095l3.721-9.668h2.09zm-3.584-3.828-1.348-3.594-1.299 3.594z"/><path d="m12.998 48.894h3.857c.767 0 1.338.029 1.714.098.376.059.708.195 1.006.396s.542.469.742.806c.195.332.298.708.298 1.123 0 .449-.122.864-.366 1.24-.244.381-.576.664-.996.85.591.171 1.04.464 1.357.879.313.415.474.903.474 1.465 0 .439-.103.869-.308 1.289-.205.415-.483.747-.835.996-.356.254-.791.4-1.309.459-.327.039-1.108.059-2.349.068h-3.286v-9.669zm1.953 1.602v2.227h1.274c.762 0 1.235-.01 1.421-.034.332-.039.596-.151.786-.347.19-.186.288-.439.288-.752 0-.293-.083-.537-.249-.723s-.41-.298-.732-.337c-.195-.024-.752-.034-1.67-.034zm0 3.828v2.598h1.802c.703 0 1.147-.02 1.338-.059.288-.054.522-.186.708-.391.181-.205.273-.479.273-.82 0-.293-.073-.542-.215-.742-.137-.205-.342-.352-.605-.449-.269-.088-.845-.137-1.729-.137z"/><path d="m34.707 58.562h-2.104l-.835-2.188h-3.882l-.791 2.188h-2.095l3.721-9.668h2.09zm-3.584-3.828-1.348-3.594-1.299 3.594z"/><path d="m35.664 58.562v-9.668h1.953v9.668z"/><path d="m39.497 58.562v-9.668h4.087c1.03 0 1.777.088 2.241.264.469.171.84.479 1.123.923.278.444.42.952.42 1.519 0 .728-.215 1.328-.64 1.797s-1.06.771-1.899.894c.42.244.767.518 1.04.811.273.298.64.82 1.104 1.572l1.177 1.89h-2.33l-1.401-2.1c-.498-.757-.835-1.23-1.021-1.426-.181-.2-.376-.332-.581-.41-.205-.068-.532-.107-.977-.107h-.39v4.043h-1.953zm1.953-5.586h1.431c.928 0 1.504-.039 1.733-.117.234-.078.415-.215.547-.41.127-.19.195-.43.195-.723 0-.322-.088-.581-.259-.781-.171-.195-.415-.322-.728-.376-.156-.024-.63-.034-1.411-.034h-1.508z"/><path d="m49.282 58.562v-9.59h1.953v7.949h4.844v1.641z"/><path d="m57.413 58.562v-9.668h1.953v9.668z"/><path d="m61.241 58.562v-9.668h1.885l3.994 6.514v-6.514h1.797v9.668h-1.943l-3.936-6.382v6.382z"/><path d="m70.991 58.562v-9.668h7.168v1.641h-5.215v2.129h4.844v1.641h-4.844v2.617h5.391v1.641h-7.344z"/><path d="m79.467 55.398 1.895-.176c.117.64.348 1.108.699 1.406.352.303.824.449 1.42.449.631 0 1.104-.132 1.426-.4.318-.264.479-.576.479-.933 0-.229-.068-.425-.199-.581-.133-.166-.367-.303-.703-.42-.225-.078-.748-.22-1.559-.42-1.045-.264-1.777-.576-2.197-.957-.59-.532-.889-1.182-.889-1.948 0-.493.143-.952.42-1.382.279-.43.68-.757 1.207-.981.521-.225 1.156-.337 1.898-.337 1.211 0 2.125.269 2.734.801.615.537.938 1.255.967 2.148l-1.953.078c-.082-.498-.264-.859-.537-1.079s-.688-.327-1.234-.327c-.572 0-1.016.117-1.334.352-.209.146-.313.352-.313.601 0 .229.098.425.289.591.248.205.844.42 1.797.645.947.225 1.65.459 2.104.693.455.244.811.571 1.07.986.258.415.385.928.385 1.543 0 .552-.156 1.074-.463 1.553-.309.488-.742.85-1.305 1.084-.566.234-1.27.352-2.109.352-1.221 0-2.162-.283-2.816-.854-.661-.568-1.052-1.398-1.179-2.487z"/></g></svg>