<?xml version="1.0" encoding="UTF-8" standalone="no"?>
<svg
   enable-background="new 0 0 867.6 603.6"
   height="178.89354"
   viewBox="0 0 674.61207 409.49999"
   width="294.87946"
   version="1.1"
   id="svg22"
   sodipodi:docname="Sky_Express_Logo.svg"
   inkscape:version="1.2.1 (9c6d41e, 2022-07-14)"
   xmlns:inkscape="http://www.inkscape.org/namespaces/inkscape"
   xmlns:sodipodi="http://sodipodi.sourceforge.net/DTD/sodipodi-0.dtd"
   xmlns="http://www.w3.org/2000/svg"
   xmlns:svg="http://www.w3.org/2000/svg">
  <defs
     id="defs26" />
  <sodipodi:namedview
     id="namedview24"
     pagecolor="#ffffff"
     bordercolor="#000000"
     borderopacity="0.25"
     inkscape:showpageshadow="2"
     inkscape:pageopacity="0.0"
     inkscape:pagecheckerboard="0"
     inkscape:deskcolor="#d1d1d1"
     showgrid="false"
     inkscape:zoom="0.89499788"
     inkscape:cx="147.48638"
     inkscape:cy="89.385686"
     inkscape:window-width="1309"
     inkscape:window-height="456"
     inkscape:window-x="0"
     inkscape:window-y="25"
     inkscape:window-maximized="0"
     inkscape:current-layer="svg22" />
  <g
     fill="#2b4077"
     id="g20"
     transform="translate(-96.553381,-97.1)">
    <path
       d="m 294.4,276.9 v -0.7 c 0,-43.6 -28.6,-61.9 -79.4,-75.1 -43.3,-11.1 -54,-16.4 -54,-32.9 v -0.7 c 0,-12.2 11.1,-21.8 32.2,-21.8 21.1,0 42.9,9.3 65.1,24.7 l 28.6,-41.5 c -25.4,-20.4 -56.5,-31.8 -93,-31.8 -51.1,0 -87.6,30 -87.6,75.4 v 0.7 c 0,49.7 32.5,63.6 82.9,76.5 41.8,10.7 50.4,17.9 50.4,31.8 v 0.7 c 0,14.7 -13.6,23.6 -36.1,23.6 -28.6,0 -52.2,-11.8 -74.7,-30.4 l -32.5,39 c 30,26.8 68.3,40 106.2,40 54,0.1 91.9,-27.8 91.9,-77.5 z"
       id="path2" />
    <path
       d="m 379.4,274.4 29,-30 77.6,106.5 h 66.1 L 445.6,206.8 533.3,115.5 620,252.2 v 98.7 h 55.1 V 251.2 L 771.3,100.6 H 708.7 L 647.9,201.1 588.2,100.6 H 547.5 523.9 481 L 379.4,210 V 100.6 h -55 v 250.3 h 55 z"
       id="path4" />
    <path
       d="m 152.7,379.6 c -25.7,0 -45.1,22 -45.1,49.5 v 0.4 c 0,29.6 21.6,49.5 46.5,49.5 18.2,0 29.6,-7.4 39.3,-17.9 l -6.3,-5.6 c -7.8,8.4 -17.9,14.9 -32.6,14.9 -18.6,0 -35.6,-13.8 -37.2,-37.4 H 196 c 0.2,-1.5 0.2,-2 0.2,-3.3 v -0.4 c 0.1,-28.1 -16.9,-49.7 -43.5,-49.7 z m -35.4,45.2 c 1.7,-21 16.2,-36.9 35,-36.9 21.8,0 32.8,17.7 34.1,36.9 z"
       id="path6" />
    <path
       d="m 293.8,381.8 h -10.9 l -32.1,40.2 -32,-40.2 h -11.3 l 37.4,46.5 -38.9,48.4 h 11 l 33.5,-42.2 33.5,42.2 h 11.3 l -38.9,-48.5 z"
       id="path8" />
    <path
       d="m 366.8,379.6 c -18.8,0 -30.9,11 -39.1,23.5 v -21.2 h -9.1 v 124.7 h 9.1 v -50.3 c 7.8,11.9 20.1,22.7 39.1,22.7 22.9,0 46.2,-18.8 46.2,-49.7 v -0.4 c 0,-30.9 -23.3,-49.3 -46.2,-49.3 z m 36.3,50.1 c 0,25.5 -16.6,40.6 -37.2,40.6 -19.7,0 -38.7,-16.4 -38.7,-40.8 v -0.4 c 0,-24.2 19,-40.8 38.7,-40.8 19.9,0 37.2,16 37.2,41 z"
       id="path10" />
    <path
       d="m 448.2,408.8 v -27 h -9.1 v 94.9 h 9.1 v -38.9 c 0,-30.9 19.2,-47.5 41.1,-47.5 h 0.9 v -10.1 c -18.7,-0.6 -34.5,11.7 -42,28.6 z"
       id="path12" />
    <path
       d="m 545.1,379.6 c -25.7,0 -45.1,22 -45.1,49.5 v 0.4 c 0,29.6 21.6,49.5 46.5,49.5 18.2,0 29.6,-7.4 39.3,-17.9 l -6.3,-5.6 c -7.8,8.4 -17.9,14.9 -32.6,14.9 -18.6,0 -35.6,-13.8 -37.2,-37.4 h 78.7 c 0.2,-1.5 0.2,-2 0.2,-3.3 v -0.4 c 0,-28.1 -16.9,-49.7 -43.5,-49.7 z m -35.4,45.2 c 1.7,-21 16.2,-36.9 35,-36.9 21.8,0 32.8,17.7 34.1,36.9 z"
       id="path14" />
    <path
       d="m 645.1,423.9 c -13.6,-3.9 -26.4,-7.8 -26.4,-18.4 v -0.4 c 0,-9.5 8.6,-16.6 21.6,-16.6 10.1,0 20.5,3.7 29.2,9.5 l 4.8,-7.6 C 664.8,384.1 652,380 640.6,380 c -18.4,0 -31.3,11 -31.3,26.3 v 0.4 c 0,16.9 17.1,21.6 32.6,26.1 13.2,3.7 25.1,7.8 25.1,19 v 0.4 c 0,11 -10.1,18.1 -22.9,18.1 -12.1,0 -23.6,-4.5 -34.1,-12.5 l -5.4,7.3 c 10.1,8.2 25.1,13.8 38.9,13.8 18.2,0 32.8,-10.8 32.8,-27.7 v -0.4 c 0,-17.1 -16,-22.6 -31.2,-26.9 z"
       id="path16" />
    <path
       d="m 733.3,423.9 c -13.6,-3.9 -26.4,-7.8 -26.4,-18.4 v -0.4 c 0,-9.5 8.6,-16.6 21.6,-16.6 10.1,0 20.5,3.7 29.2,9.5 l 4.8,-7.6 C 753,384.1 740.2,380 728.8,380 c -18.4,0 -31.3,11 -31.3,26.3 v 0.4 c 0,16.9 17.1,21.6 32.6,26.1 13.2,3.7 25.1,7.8 25.1,19 v 0.4 c 0,11 -10.1,18.1 -22.9,18.1 -12.1,0 -23.6,-4.5 -34.1,-12.5 l -5.4,7.3 c 10.1,8.2 25.1,13.8 38.9,13.8 18.2,0 32.8,-10.8 32.8,-27.7 v -0.4 c 0.1,-17.1 -15.9,-22.6 -31.2,-26.9 z"
       id="path18" />
  </g>
</svg>
