<?xml version="1.0" encoding="utf-8"?>
<svg viewBox="0 0 121 79" fill="none" xmlns="http://www.w3.org/2000/svg">
  <defs>
    <linearGradient id="paint0_linear_301_83" x1="30.3542" y1="35.7368" x2="56.1852" y2="43.7387" gradientUnits="userSpaceOnUse">
      <stop stop-color="#D78618"/>
      <stop offset="0.1297" stop-color="#D78618"/>
      <stop offset="0.6749" stop-color="#FABD09"/>
      <stop offset="1" stop-color="#FABD09"/>
    </linearGradient>
    <linearGradient id="paint1_linear_301_83" x1="33.4178" y1="25.8462" x2="64.1547" y2="35.3678" gradientUnits="userSpaceOnUse">
      <stop stop-color="#D78618"/>
      <stop offset="0.1297" stop-color="#D78618"/>
      <stop offset="0.6749" stop-color="#FABD09"/>
      <stop offset="1" stop-color="#FABD09"/>
    </linearGradient>
    <linearGradient id="paint2_linear_301_83" x1="36.6905" y1="15.281" x2="72.3332" y2="26.3223" gradientUnits="userSpaceOnUse">
      <stop stop-color="#D78618"/>
      <stop offset="0.132" stop-color="#D78618"/>
      <stop offset="0.6665" stop-color="#FABD09"/>
      <stop offset="1" stop-color="#FABD09"/>
    </linearGradient>
    <linearGradient id="paint3_linear_301_83" x1="28.7384" y1="40.9531" x2="2.90691" y2="32.951" gradientUnits="userSpaceOnUse">
      <stop stop-color="#BF651D"/>
      <stop offset="0.3875" stop-color="#D78618"/>
      <stop offset="1" stop-color="#FABD09"/>
    </linearGradient>
    <linearGradient id="paint4_linear_301_83" x1="31.8022" y1="31.0627" x2="1.06493" y2="21.5409" gradientUnits="userSpaceOnUse">
      <stop stop-color="#BF651D"/>
      <stop offset="0.3875" stop-color="#D78618"/>
      <stop offset="1" stop-color="#FABD09"/>
    </linearGradient>
    <linearGradient id="paint5_linear_301_83" x1="35.0748" y1="20.4976" x2="-0.568206" y2="9.45619" gradientUnits="userSpaceOnUse">
      <stop stop-color="#BF651D"/>
      <stop offset="0.3875" stop-color="#D78618"/>
      <stop offset="1" stop-color="#FABD09"/>
    </linearGradient>
  </defs>
  <mask id="mask0_301_83" style="mask-type:luminance" maskUnits="userSpaceOnUse" x="28" y="33" width="31" height="11">
    <path d="M46.1143 34.0451C36.9911 31.8548 31.7498 33.6245 30.4226 35.516L28.0586 43.1475C29.3758 41.2529 34.616 39.4748 43.7528 41.6683C48.6912 42.8537 52.7619 43.5979 56.1195 43.9512L58.4807 36.3279C55.1233 35.9747 51.0527 35.2305 46.1143 34.0451Z" fill="white"/>
  </mask>
  <mask id="mask1_301_83" style="mask-type:luminance" maskUnits="userSpaceOnUse" x="30" y="23" width="37" height="12">
    <path d="M48.9772 24.8026C39.8541 22.6124 34.6125 24.3822 33.2855 26.2736L30.9215 33.9053C32.2385 32.0107 37.4789 30.2324 46.6157 32.4258C54.5196 34.3234 60.2089 35.0947 64.2898 34.932L66.651 27.3087C62.5704 27.4714 56.8809 26.7001 48.9772 24.8026Z" fill="white"/>
  </mask>
  <mask id="mask2_301_83" style="mask-type:luminance" maskUnits="userSpaceOnUse" x="33" y="14" width="43" height="12">
    <path d="M51.8166 15.636C42.6915 13.4452 37.45 15.2163 36.1244 17.1083L33.761 24.7387C35.0781 22.8442 40.3182 21.0659 49.4553 23.2592C62.1388 26.3041 69.122 26.4502 72.9015 24.4879C73.4121 22.8394 74.3822 19.7079 75.2628 16.8646C71.4833 18.8269 64.5001 18.6808 51.8166 15.636Z" fill="white"/>
  </mask>
  <mask id="mask3_301_83" style="mask-type:luminance" maskUnits="userSpaceOnUse" x="2" y="25" width="27" height="24">
    <path d="M16.6942 30.6483C25.4578 33.9985 28.7813 38.4212 28.8069 40.7319L26.4429 48.3633C26.4274 46.0561 23.1098 41.6269 14.3328 38.2716C9.58914 36.458 5.81049 34.7707 2.84106 33.1643L5.20244 25.5409C8.1718 27.1475 11.9505 28.8346 16.6942 30.6483Z" fill="white"/>
  </mask>
  <mask id="mask4_301_83" style="mask-type:luminance" maskUnits="userSpaceOnUse" x="1" y="13" width="31" height="27">
    <path d="M19.5573 21.4058C28.3209 24.7562 31.6443 29.179 31.6699 31.4894L29.3059 39.1211C29.2903 36.8137 25.9729 32.3846 17.1959 29.0292C9.60338 26.1266 4.47418 23.5467 1.19995 21.1058L3.56126 13.4825C6.83552 15.9235 11.9648 18.5033 19.5573 21.4058Z" fill="white"/>
  </mask>
  <mask id="mask5_301_83" style="mask-type:luminance" maskUnits="userSpaceOnUse" x="0" y="0" width="121" height="70">
    <path d="M0 69.5381H120.997V-2.28882e-05H0V69.5381Z" fill="white"/>
  </mask>
  <g mask="url(#mask0_301_83)">
    <path d="M46.1143 34.0451C36.9911 31.8548 31.7498 33.6245 30.4226 35.516L28.0586 43.1475C29.3758 41.2529 34.616 39.4748 43.7528 41.6683C48.6912 42.8537 52.7619 43.5979 56.1195 43.9512L58.4807 36.3279C55.1233 35.9747 51.0527 35.2305 46.1143 34.0451Z" fill="url(#paint0_linear_301_83)"/>
  </g>
  <g mask="url(#mask1_301_83)">
    <path d="M48.9772 24.8026C39.8541 22.6124 34.6125 24.3822 33.2855 26.2736L30.9215 33.9053C32.2385 32.0107 37.4789 30.2324 46.6157 32.4258C54.5196 34.3234 60.2089 35.0947 64.2898 34.932L66.651 27.3087C62.5704 27.4714 56.8809 26.7001 48.9772 24.8026Z" fill="url(#paint1_linear_301_83)"/>
  </g>
  <g mask="url(#mask2_301_83)">
    <path d="M51.8166 15.636C42.6915 13.4452 37.45 15.2163 36.1244 17.1083L33.761 24.7387C35.0781 22.8442 40.3182 21.0659 49.4553 23.2592C62.1388 26.3041 69.122 26.4502 72.9015 24.4879C73.4121 22.8394 74.3822 19.7079 75.2628 16.8646C71.4833 18.8269 64.5001 18.6808 51.8166 15.636Z" fill="url(#paint2_linear_301_83)"/>
  </g>
  <g mask="url(#mask3_301_83)">
    <path d="M16.6942 30.6483C25.4578 33.9985 28.7813 38.4212 28.8069 40.7319L26.4429 48.3633C26.4274 46.0561 23.1098 41.6269 14.3328 38.2716C9.58914 36.458 5.81049 34.7707 2.84106 33.1643L5.20244 25.5409C8.1718 27.1475 11.9505 28.8346 16.6942 30.6483Z" fill="url(#paint3_linear_301_83)"/>
  </g>
  <g mask="url(#mask4_301_83)">
    <path d="M19.5573 21.4058C28.3209 24.7562 31.6443 29.179 31.6699 31.4894L29.3059 39.1211C29.2903 36.8137 25.9729 32.3846 17.1959 29.0292C9.60338 26.1266 4.47418 23.5467 1.19995 21.1058L3.56126 13.4825C6.83552 15.9235 11.9648 18.5033 19.5573 21.4058Z" fill="url(#paint4_linear_301_83)"/>
  </g>
  <g mask="url(#mask5_301_83)">
    <mask id="mask6_301_83" style="mask-type:luminance" maskUnits="userSpaceOnUse" x="0" y="-1" width="35" height="31">
      <path d="M22.3967 12.2392C31.1624 15.5902 34.4849 20.0143 34.5089 22.3241L32.1453 29.9546C32.1296 27.6471 28.8123 23.218 20.0354 19.8623C7.85144 15.2045 2.00848 11.3775 0 7.62224C0.510652 5.97388 1.48059 2.84229 2.36138 -0.000932693C4.36982 3.75423 10.2128 7.58129 22.3967 12.2392Z" fill="white"/>
    </mask>
    <g mask="url(#mask6_301_83)">
      <path d="M32.1412 29.9617V29.8474H32.1324V29.7244H32.1236V29.6541H32.1148V29.5925H32.106V29.5222H32.0972V29.4783H32.0884V29.4343H32.0796V29.3904H32.0708V29.3464H32.0621V29.3025H32.0533V29.2586H32.0445V29.2322H32.0357V29.197H32.0269V29.1707H32.0181V29.1355H32.0093V29.1004H32.0005V29.074H31.9917V29.0388H31.983V29.0125H31.9742V28.9861H31.9654V28.9597H31.9566V28.9334H31.9478V28.907H31.939V28.8806H31.9302V28.8543H31.9214V28.8279H31.9126V28.8015H31.9039V28.784H31.8951V28.7576H31.8863V28.7312H31.8775V28.7049H31.8687V28.6873H31.8599V28.6697H31.8511V28.6433H31.8423V28.6258H31.8335V28.5994H31.8248V28.5818H31.816V28.5642H31.8072V28.5379H31.7984V28.5203H31.7896V28.4939H31.7808V28.4763H31.772V28.45H31.7632V28.4324H31.7544V28.4148H31.7457V28.3972H31.7369V28.3797H31.7281V28.3621H31.7193V28.3445H31.7105V28.3269H31.7017V28.3093H31.6929V28.2918H31.6841V28.2654H31.6753V28.2478H31.6666V28.2302H31.6578V28.2127H31.649V28.1951H31.6402V28.1775H31.6314V28.1599H31.6226V28.1424H31.6138V28.1248H31.605V28.116H31.5962V28.0984H31.5875V28.0808H31.5787V28.0633H31.5699V28.0457H31.5611V28.0281H31.5523V28.0105H31.5435V27.9929H31.5347V27.9842H31.5259V27.9666H31.5171V27.949H31.5084V27.9314H31.4996V27.9138H31.4908V27.8963H31.482V27.8787H31.4732V27.8699H31.4644V27.8523H31.4556V27.8347H31.4468V27.826H31.438V27.8084H31.4293V27.7908H31.4205V27.782H31.4117V27.7644H31.4029V27.7469H31.3941V27.7381H31.3853V27.7205H31.3765V27.7029H31.3677V27.6941H31.3589V27.6765H31.3502V27.659H31.3414V27.6502H31.3326V27.6326H31.3238V27.615H31.315V27.6062H31.3062V27.5887H31.2974V27.5711H31.2886V27.5623H31.2798V27.5447H31.2711V27.5359H31.2623V27.5183H31.2535V27.5096H31.2447V27.492H31.2359V27.4832H31.2271V27.4656H31.2183V27.4568H31.2095V27.4392H31.2007V27.4305H31.192V27.4129H31.1832V27.4041H31.1744V27.3865H31.1656V27.3777H31.1568V27.3601H31.148V27.3514H31.1392V27.3338H31.1304V27.325H31.1216V27.3074H31.1129V27.2986H31.1041V27.281H31.0953V27.2723H31.0865V27.2547H31.0777V27.2459H31.0689V27.2283H31.0601V27.2195H31.0513V27.2107H31.0425V27.1932H31.0338V27.1844H31.025V27.1668H31.0162V27.158H31.0074V27.1492H30.9986V27.1316H30.9898V27.1228H30.981V27.1141H30.9722V27.0965H30.9634V27.0877H30.9547V27.0701H30.9459V27.0613H30.9371V27.0525H30.9283V27.035H30.9195V27.0262H30.9107V27.0086H30.9019V26.9998H30.8931V26.991H30.8843V26.9734H30.8756V26.9646H30.8668V26.9559H30.858V26.9383H30.8492V26.9295H30.8404V26.9207H30.8316V26.9031H30.8228V26.8943H30.814V26.8855H30.8052V26.8768H30.7965V26.8592H30.7877V26.8504H30.7789V26.8416H30.7701V26.824H30.7613V26.8152H30.7525V26.8064H30.7437V26.7977H30.7349V26.7801H30.7261V26.7713H30.7174V26.7625H30.7086V26.7449H30.6998V26.7361H30.691V26.7273H30.6822V26.7186H30.6734V26.701H30.6646V26.6922H30.6558V26.6834H30.647V26.6658H30.6383V26.657H30.6295V26.6482H30.6207V26.6395H30.6119V26.6219H30.6031V26.6131H30.5943V26.6043H30.5855V26.5955H30.5767V26.5867H30.5679V26.5779H30.5591V26.5603H30.5504V26.5516H30.5416V26.5428H30.5328V26.534H30.524V26.5252H30.5152V26.5076H30.5064V26.4988H30.4976V26.49H30.4888V26.4812H30.48V26.4725H30.4713V26.4549H30.4625V26.4461H30.4537V26.4373H30.4449V26.4285H30.4361V26.4197H30.4273V26.4021H30.4185V26.3934H30.4097V26.3846H30.4009V26.3758H30.3922V26.367H30.3834V26.3582H30.3746V26.3406H30.3658V26.3318H30.357V26.323H30.3482V26.3143H30.3394V26.3055H30.3306V26.2967H30.3218V26.2791H30.3131V26.2703H30.3043V26.2615H30.2955V26.2527H30.2867V26.2439H30.2779V26.2352H30.2691V26.2264H30.2603V26.2176H30.2515V26.2088H30.2427V26.1912H30.234V26.1824H30.2252V26.1736H30.2164V26.1648H30.2076V26.1561H30.1988V26.1473H30.19V26.1385H30.1812V26.1297H30.1724V26.1209H30.1636V26.1121H30.1549V26.0945H30.1461V26.0857H30.1373V26.077H30.1285V26.0682H30.1197V26.0594H30.1109V26.0506H30.1021V26.0418H30.0933V26.033H30.0845V26.0242H30.0758V26.0066H30.067V25.9979H30.0582V25.9891H30.0494V25.9803H30.0406V25.9715H30.0318V25.9627H30.023V25.9539H30.0142V25.9451H30.0054V25.9363H29.9967V25.9275H29.9879V25.9188H29.9791V25.91H29.9703V25.9012H29.9615V25.8924H29.9527V25.8836H29.9439V25.8748H29.9351V25.866H29.9263V25.8572H29.9176V25.8484H29.9088V25.8397H29.9V25.8221H29.8912V25.8133H29.8824V25.8045H29.8736V25.7957H29.8648V25.7869H29.856V25.7781H29.8472V25.7693H29.8385V25.7606H29.8297V25.7518H29.8209V25.743H29.8121V25.7342H29.8033V25.7254H29.7945V25.7166H29.7857V25.7078H29.7769V25.699H29.7681V25.6902H29.7594V25.6815H29.7506V25.6727H29.7418V25.6639H29.733V25.6551H29.7242V25.6463H29.7154V25.6375H29.7066V25.6287H29.6978V25.6199H29.689V25.6111H29.6803V25.6024H29.6715V25.5936H29.6627V25.5848H29.6539V25.576H29.6451V25.5672H29.6363V25.5584H29.6275V25.5496H29.6187V25.5408H29.6099V25.532H29.6012V25.5233H29.5924V25.5145H29.5836V25.5057H29.5748V25.4969H29.566V25.4881H29.5572V25.4793H29.5484V25.4705H29.5396V25.4617H29.5308V25.4529H29.5221V25.4442H29.5133V25.4354H29.4957V25.4266H29.4869V25.4178H29.4781V25.409H29.4693V25.4002H29.4605V25.3914H29.4517V25.3826H29.443V25.3738H29.4342V25.3651H29.4254V25.3563H29.4166V25.3475H29.4078V25.3387H29.399V25.3299H29.3902V25.3211H29.3814V25.3123H29.3726V25.3035H29.3639V25.2947H29.3551V25.286H29.3463V25.2772H29.3375V25.2684H29.3287V25.2596H29.3199V25.2508H29.3023V25.242H29.2935V25.2332H29.2848V25.2244H29.276V25.2156H29.2672V25.2069H29.2584V25.1981H29.2496V25.1893H29.2408V25.1805H29.232V25.1717H29.2232V25.1629H29.2057V25.1541H29.1969V25.1453H29.1881V25.1365H29.1793V25.1278H29.1705V25.119H29.1617V25.1102H29.1529V25.1014H29.1441V25.0926H29.1353V25.0838H29.1266V25.075H29.1178V25.0662H29.1002V25.0574H29.0914V25.0487H29.0826V25.0399H29.0738V25.0311H29.065V25.0223H29.0562V25.0135H29.0475V25.0047H29.0387V24.9959H29.0299V24.9871H29.0211V24.9783H29.0035V24.9696H28.9947V24.9608H28.9859V24.952H28.9771V24.9432H28.9684V24.9344H28.9596V24.9256H28.9508V24.9168H28.9332V24.908H28.9244V24.8992H28.9156V24.8905H28.9068V24.8817H28.898V24.8729H28.8892V24.8641H28.8717V24.8553H28.8629V24.8465H28.8541V24.8377H28.8453V24.8289H28.8365V24.8201H28.8277V24.8114H28.8102V24.8026H28.8014V24.7938H28.7926V24.785H28.7838V24.7762H28.775V24.7674H28.7662V24.7586H28.7486V24.7498H28.7398V24.741H28.731V24.7322H28.7223V24.7235H28.7135V24.7147H28.7047V24.7059H28.6871V24.6971H28.6783V24.6883H28.6695V24.6795H28.6607V24.6707H28.6519V24.6619H28.6432V24.6531H28.6256V24.6444H28.6168V24.6356H28.608V24.6268H28.5992V24.618H28.5904V24.6092H28.5816V24.6004H28.5641V24.5916H28.5553V24.5828H28.5465V24.574H28.5377V24.5653H28.5201V24.5565H28.5113V24.5477H28.5025V24.5389H28.4937V24.5301H28.4762V24.5213H28.4674V24.5125H28.4586V24.5037H28.4498V24.4949H28.441V24.4862H28.4234V24.4774H28.4146V24.4686H28.4059V24.4598H28.3971V24.451H28.3795V24.4422H28.3707V24.4334H28.3619V24.4246H28.3531V24.4158H28.3355V24.4071H28.3268V24.3983H28.318V24.3895H28.3092V24.3807H28.2916V24.3719H28.2828V24.3631H28.274V24.3543H28.2652V24.3455H28.2564V24.3367H28.2389V24.328H28.2301V24.3192H28.2213V24.3104H28.2125V24.3016H28.1949V24.2928H28.1861V24.284H28.1773V24.2752H28.1686V24.2664H28.151V24.2576H28.1422V24.2489H28.1334V24.2401H28.1158V24.2313H28.107V24.2225H28.0982V24.2137H28.0895V24.2049H28.0719V24.1961H28.0631V24.1873H28.0543V24.1785H28.0367V24.1698H28.0279V24.161H28.0191V24.1522H28.0016V24.1434H27.9928V24.1346H27.984V24.1258H27.9664V24.117H27.9576V24.1082H27.9488V24.0994H27.94V24.0907H27.9225V24.0819H27.9137V24.0731H27.9049V24.0643H27.8873V24.0555H27.8785V24.0467H27.8697V24.0379H27.8522V24.0291H27.8434V24.0203H27.8346V24.0116H27.817V24.0028H27.8082V23.994H27.7994V23.9852H27.7906V23.9764H27.7731V23.9676H27.7643V23.9588H27.7555V23.95H27.7379V23.9412H27.7291V23.9325H27.7203V23.9237H27.7027V23.9149H27.694V23.9061H27.6852V23.8973H27.6676V23.8885H27.6588V23.8797H27.6412V23.8709H27.6324V23.8621H27.6236V23.8534H27.6061V23.8446H27.5973V23.8358H27.5885V23.827H27.5709V23.8182H27.5621V23.8094H27.5445V23.8006H27.5358V23.7918H27.527V23.783H27.5094V23.7743H27.5006V23.7655H27.483V23.7567H27.4742V23.7479H27.4654V23.7391H27.4479V23.7303H27.4391V23.7215H27.4303V23.7127H27.4127V23.7039H27.4039V23.6952H27.3863V23.6864H27.3776V23.6776H27.3688V23.6688H27.3512V23.66H27.3424V23.6512H27.3336V23.6424H27.316V23.6336H27.3072V23.6248H27.2897V23.6161H27.2809V23.6073H27.2721V23.5985H27.2545V23.5897H27.2457V23.5809H27.2281V23.5721H27.2194V23.5633H27.2106V23.5545H27.193V23.5457H27.1842V23.537H27.1666V23.5282H27.1578V23.5194H27.1403V23.5106H27.1315V23.5018H27.1139V23.493H27.1051V23.4842H27.0875V23.4754H27.0787V23.4666H27.0612V23.4579H27.0524V23.4491H27.0436V23.4403H27.026V23.4315H27.0172V23.4227H26.9996V23.4139H26.9908V23.4051H26.9733V23.3963H26.9645V23.3875H26.9469V23.3788H26.9381V23.37H26.9205V23.3612H26.9117V23.3524H26.8942V23.3436H26.8854V23.3348H26.8766V23.326H26.859V23.3172H26.8502V23.3084H26.8326V23.2997H26.8238V23.2909H26.8063V23.2821H26.7975V23.2733H26.7799V23.2645H26.7711V23.2557H26.7535V23.2469H26.7447V23.2381H26.7272V23.2293H26.7184V23.2206H26.7008V23.2118H26.692V23.203H26.6744V23.1942H26.6656V23.1854H26.6481V23.1766H26.6393V23.1678H26.6217V23.159H26.6129V23.1502H26.5953V23.1415H26.5865V23.1327H26.569V23.1239H26.5514V23.1151H26.5426V23.1063H26.525V23.0975H26.5162V23.0887H26.4987V23.0799H26.4899V23.0711H26.4723V23.0624H26.4635V23.0536H26.4459V23.0448H26.4371V23.036H26.4196V23.0272H26.402V23.0184H26.3932V23.0096H26.3756V23.0008H26.3668V22.992H26.3492V22.9833H26.3405V22.9745H26.3229V22.9657H26.3141V22.9569H26.2965V22.9481H26.2877V22.9393H26.2701V22.9305H26.2614V22.9217H26.2438V22.9129H26.2262V22.9042H26.2174V22.8954H26.1998V22.8866H26.191V22.8778H26.1735V22.869H26.1647V22.8602H26.1471V22.8514H26.1295V22.8426H26.1207V22.8338H26.1032V22.825H26.0856V22.8163H26.0768V22.8075H26.0592V22.7987H26.0504V22.7899H26.0328V22.7811H26.0153V22.7723H26.0065V22.7635H25.9889V22.7547H25.9713V22.7459H25.9625V22.7372H25.945V22.7284H25.9274V22.7196H25.9186V22.7108H25.901V22.702H25.8922V22.6932H25.8746V22.6844H25.8571V22.6756H25.8483V22.6668H25.8307V22.6581H25.8131V22.6493H25.8043V22.6405H25.7868V22.6317H25.778V22.6229H25.7604V22.6141H25.7428V22.6053H25.734V22.5965H25.7164V22.5877H25.6989V22.579H25.6901V22.5702H25.6725V22.5614H25.6637V22.5526H25.6461V22.5438H25.6286V22.535H25.6198V22.5262H25.6022V22.5174H25.5846V22.5086H25.567V22.4999H25.5582V22.4911H25.5407V22.4823H25.5231V22.4735H25.5143V22.4647H25.4967V22.4559H25.4791V22.4471H25.4616V22.4383H25.4528V22.4295H25.4352V22.4208H25.4176V22.412H25.4088V22.4032H25.3913V22.3944H25.3737V22.3856H25.3561V22.3768H25.3473V22.368H25.3297V22.3592H25.3122V22.3504H25.2946V22.3417H25.2858V22.3329H25.2682V22.3241H25.2506V22.3153H25.2418V22.3065H25.2243V22.2977H25.2067V22.2889H25.1891V22.2801H25.1803V22.2713H25.1627V22.2626H25.1452V22.2538H25.1364V22.245H25.1188V22.2362H25.1012V22.2274H25.0836V22.2186H25.0749V22.2098H25.0573V22.201H25.0397V22.1922H25.0221V22.1835H25.0133V22.1747H24.9957V22.1659H24.9782V22.1571H24.9606V22.1483H24.943V22.1395H24.9342V22.1307H24.9166V22.1219H24.8991V22.1131H24.8815V22.1044H24.8639V22.0956H24.8463V22.0868H24.8375V22.078H24.82V22.0692H24.8024V22.0604H24.7848V22.0516H24.7672V22.0428H24.7584V22.034H24.7409V22.0253H24.7233V22.0165H24.7057V22.0077H24.6881V21.9989H24.6793V21.9901H24.6618V21.9813H24.6442V21.9725H24.6266V21.9637H24.609V21.9549H24.5915V21.9462H24.5827V21.9374H24.5651V21.9286H24.5475V21.9198H24.5299V21.911H24.5124V21.9022H24.5036V21.8934H24.486V21.8846H24.4684V21.8758H24.4508V21.8671H24.4333V21.8583H24.4157V21.8495H24.4069V21.8407H24.3893V21.8319H24.3717V21.8231H24.3542V21.8143H24.3366V21.8055H24.319V21.7967H24.3014V21.788H24.2838V21.7792H24.2663V21.7704H24.2487V21.7616H24.2311V21.7528H24.2223V21.744H24.2047V21.7352H24.1872V21.7264H24.1696V21.7176H24.152V21.7089H24.1344V21.7001H24.1169V21.6913H24.0993V21.6825H24.0817V21.6737H24.0641V21.6649H24.0465V21.6561H24.029V21.6473H24.0114V21.6385H24.0026V21.6298H23.985V21.621H23.9674V21.6122H23.9499V21.6034H23.9323V21.5946H23.9147V21.5858H23.8971V21.577H23.8796V21.5682H23.862V21.5594H23.8444V21.5507H23.8268V21.5419H23.8092V21.5331H23.8005V21.5243H23.7829V21.5155H23.7653V21.5067H23.7477V21.4979H23.7301V21.4891H23.7126V21.4803H23.695V21.4716H23.6774V21.4628H23.6598V21.454H23.6423V21.4452H23.6247V21.4364H23.6071V21.4276H23.5895V21.4188H23.5632V21.41H23.5456V21.4012H23.528V21.3925H23.5104V21.3837H23.4928V21.3749H23.4753V21.3661H23.4577V21.3573H23.4401V21.3485H23.4225V21.3397H23.405V21.3309H23.3874V21.3221H23.3698V21.3134H23.3522V21.3046H23.3346V21.2958H23.3171V21.287H23.2995V21.2782H23.2819V21.2694H23.2643V21.2606H23.2467V21.2518H23.2292V21.243H23.2116V21.2343H23.194V21.2255H23.1764V21.2167H23.1589V21.2079H23.1413V21.1991H23.1237V21.1903H23.1061V21.1815H23.0885V21.1727H23.071V21.1639H23.0534V21.1552H23.027V21.1464H23.0094V21.1376H22.9919V21.1288H22.9743V21.12H22.9567V21.1112H22.9391V21.1024H22.9216V21.0936H22.8952V21.0848H22.8776V21.076H22.86V21.0673H22.8425V21.0585H22.8249V21.0497H22.8073V21.0409H22.7897V21.0321H22.7634V21.0233H22.7458V21.0145H22.7282V21.0057H22.7106V20.9969H22.693V20.9882H22.6755V20.9794H22.6579V20.9706H22.6315V20.9618H22.6139V20.953H22.5964V20.9442H22.5788V20.9354H22.5612V20.9266H22.5436V20.9178H22.5261V20.9091H22.4997V20.9003H22.4821V20.8915H22.4645V20.8827H22.447V20.8739H22.4294V20.8651H22.4118V20.8563H22.3942V20.8475H22.3679V20.8387H22.3503V20.83H22.3327V20.8212H22.3151V20.8124H22.2975V20.8036H22.2712V20.7948H22.2536V20.786H22.236V20.7772H22.2097V20.7684H22.1921V20.7596H22.1745V20.7509H22.1569V20.7421H22.1306V20.7333H22.113V20.7245H22.0954V20.7157H22.0778V20.7069H22.0515V20.6981H22.0339V20.6893H22.0163V20.6805H21.9987V20.6718H21.9724V20.663H21.9548V20.6542H21.9372V20.6454H21.9108V20.6366H21.8933V20.6278H21.8757V20.619H21.8581V20.6102H21.8317V20.6014H21.8142V20.5927H21.7966V20.5839H21.779V20.5751H21.7526V20.5663H21.7351V20.5575H21.7175V20.5487H21.6999V20.5399H21.6735V20.5311H21.656V20.5223H21.6384V20.5136H21.612V20.5048H21.5944V20.496H21.5769V20.4872H21.5505V20.4784H21.5329V20.4696H21.5153V20.4608H21.489V20.452H21.4714V20.4432H21.445V20.4345H21.4274V20.4257H21.4099V20.4169H21.3835V20.4081H21.3659V20.3993H21.3396V20.3905H21.322V20.3817H21.3044V20.3729H21.278V20.3641H21.2604V20.3554H21.2341V20.3466H21.2165V20.3378H21.1989V20.329H21.1726V20.3202H21.155V20.3114H21.1286V20.3026H21.111V20.2938H21.0935V20.285H21.0671V20.2763H21.0495V20.2675H21.0231V20.2587H21.0056V20.2499H20.988V20.2411H20.9616V20.2323H20.944V20.2235H20.9177V20.2147H20.9001V20.2059H20.8825V20.1972H20.8562V20.1884H20.8386V20.1796H20.8122V20.1708H20.7946V20.162H20.7683V20.1532H20.7507V20.1444H20.7243V20.1356H20.7067V20.1268H20.6804V20.1181H20.6628V20.1093H20.6364V20.1005H20.6189V20.0917H20.5925V20.0829H20.5749V20.0741H20.5485V20.0653H20.531V20.0565H20.5046V20.0477H20.487V20.039H20.4607V20.0302H20.4343V20.0214H20.4167V20.0126H20.3903V20.0038H20.3728V19.995H20.3464V19.9862H20.3288V19.9774H20.3025V19.9686H20.2849V19.9599H20.2585V19.9511H20.2409V19.9423H20.2146V19.9335H20.197V19.9247H20.1706V19.9159H20.1443V19.9071H20.1267V19.8983H20.1003V19.8895H20.0827V19.8808H20.0564V19.872H20.03V19.8632H20.0124V19.8544H19.9861V19.8456H19.9597V19.8368H19.9421V19.828H19.9157V19.8192H19.8982V19.8104H19.8718V19.8017H19.8454V19.7929H19.8279V19.7841H19.8015V19.7753H19.7839V19.7665H19.7575V19.7577H19.7312V19.7489H19.7136V19.7401H19.6872V19.7313H19.6697V19.7226H19.6433V19.7138H19.6169V19.705H19.5993V19.6962H19.573V19.6874H19.5554V19.6786H19.529V19.6698H19.5114V19.661H19.4851V19.6522H19.4587V19.6435H19.4411V19.6347H19.4148V19.6259H19.3972V19.6171H19.3708V19.6083H19.3532V19.5995H19.3269V19.5907H19.3005V19.5819H19.2829V19.5731H19.2566V19.5644H19.239V19.5556H19.2126V19.5468H19.1863V19.538H19.1687V19.5292H19.1423V19.5204H19.1247V19.5116H19.0984V19.5028H19.0808V19.494H19.0544V19.4853H19.0281V19.4765H19.0105V19.4677H18.9841V19.4589H18.9665V19.4501H18.9402V19.4413H18.9226V19.4325H18.8962V19.4237H18.8699V19.4149H18.8523V19.4062H18.8259V19.3974H18.8083V19.3886H18.782V19.3798H18.7644V19.371H18.738V19.3622H18.7204V19.3534H18.6941V19.3446H18.6765V19.3358H18.6501V19.3271H18.6326V19.3183H18.6062V19.3095H18.5886V19.3007H18.5622V19.2919H18.5359V19.2831H18.5183V19.2743H18.4919V19.2655H18.4744V19.2567H18.448V19.248H18.4304V19.2392H18.404V19.2304H18.3865V19.2216H18.3601V19.2128H18.3425V19.204H18.3162V19.1952H18.2986V19.1864H18.2722V19.1776H18.2546V19.1688H18.2283V19.1601H18.2107V19.1513H18.1843V19.1425H18.158V19.1337H18.1404V19.1249H18.114V19.1161H18.0964V19.1073H18.0701V19.0985H18.0525V19.0897H18.0261V19.081H18.0085V19.0722H17.9822V19.0634H17.9646V19.0546H17.9382V19.0458H17.9207V19.037H17.8943V19.0282H17.8767V19.0194H17.8503V19.0106H17.824V19.0019H17.8064V18.9931H17.7888V18.9843H17.7625V18.9755H17.7449V18.9667H17.7185V18.9579H17.7009V18.9491H17.6746V18.9403H17.657V18.9315H17.6306V18.9228H17.613V18.914H17.5867V18.9052H17.5691V18.8964H17.5427V18.8876H17.5251V18.8788H17.4988V18.87H17.4812V18.8612H17.4548V18.8524H17.4373V18.8437H17.4109V18.8349H17.3933V18.8261H17.3757V18.8173H17.3494V18.8085H17.3318V18.7997H17.3054V18.7909H17.2878V18.7821H17.2615V18.7733H17.2439V18.7646H17.2175V18.7558H17.2V18.747H17.1736V18.7382H17.156V18.7294H17.1296V18.7206H17.1121V18.7118H17.0857V18.703H17.0681V18.6942H17.0418V18.6855H17.0242V18.6767H16.9978V18.6679H16.9802V18.6591H16.9627V18.6503H16.9363V18.6415H16.9187V18.6327H16.8923V18.6239H16.8748V18.6151H16.8484V18.6064H16.8308V18.5976H16.8045V18.5888H16.7869V18.58H16.7605V18.5712H16.7429V18.5624H16.7166V18.5536H16.699V18.5448H16.6814V18.536H16.655V18.5273H16.6375V18.5185H16.6111V18.5097H16.5935V18.5009H16.5759V18.4921H16.5496V18.4833H16.532V18.4745H16.5056V18.4657H16.4881V18.4569H16.4705V18.4482H16.4441V18.4394H16.4265V18.4306H16.4002V18.4218H16.3826V18.413H16.3562V18.4042H16.3386V18.3954H16.3211V18.3866H16.2947V18.3778H16.2771V18.3691H16.2508V18.3603H16.2332V18.3515H16.2156V18.3427H16.1892V18.3339H16.1717V18.3251H16.1453V18.3163H16.1277V18.3075H16.1013V18.2987H16.0838V18.29H16.0662V18.2812H16.0398V18.2724H16.0222V18.2636H15.9959V18.2548H15.9783V18.246H15.9607V18.2372H15.9344V18.2284H15.9168V18.2196H15.8904V18.2109H15.8728V18.2021H15.8553V18.1933H15.8289V18.1845H15.8113V18.1757H15.7849V18.1669H15.7674V18.1581H15.741V18.1493H15.7234V18.1405H15.7058V18.1318H15.6795V18.123H15.6619V18.1142H15.6443V18.1054H15.6179V18.0966H15.6004V18.0878H15.5828V18.079H15.5564V18.0702H15.5388V18.0614H15.5213V18.0527H15.4949V18.0439H15.4773V18.0351H15.4597V18.0263H15.4334V18.0175H15.4158V18.0087H15.3894V17.9999H15.3719V17.9911H15.3543V17.9823H15.3279V17.9736H15.3103V17.9648H15.2928V17.956H15.2664V17.9472H15.2488V17.9384H15.2312V17.9296H15.2049V17.9208H15.1873V17.912H15.1697V17.9032H15.1433V17.8945H15.1258V17.8857H15.1082V17.8769H15.0818V17.8681H15.0642V17.8593H15.0379V17.8505H15.0203V17.8417H15.0027V17.8329H14.9764V17.8241H14.9588V17.8154H14.9412V17.8066H14.9148V17.7978H14.8973V17.789H14.8797V17.7802H14.8533V17.7714H14.8357V17.7626H14.8182V17.7538H14.7918V17.745H14.7742V17.7363H14.7566V17.7275H14.7303V17.7187H14.7127V17.7099H14.6951V17.7011H14.6687V17.6923H14.6512V17.6835H14.6336V17.6747H14.6072V17.6659H14.5896V17.6572H14.5721V17.6484H14.5545V17.6396H14.5281V17.6308H14.5105V17.622H14.493V17.6132H14.4666V17.6044H14.449V17.5956H14.4314V17.5868H14.4139V17.5781H14.3875V17.5693H14.3699V17.5605H14.3523V17.5517H14.326V17.5429H14.3084V17.5341H14.2908V17.5253H14.2732V17.5165H14.2469V17.5077H14.2293V17.499H14.2117V17.4902H14.1854V17.4814H14.1678V17.4726H14.1502V17.4638H14.1238V17.455H14.1063V17.4462H14.0887V17.4374H14.0711V17.4286H14.0447V17.4199H14.0272V17.4111H14.0096V17.4023H13.9832V17.3935H13.9656V17.3847H13.9481V17.3759H13.9305V17.3671H13.9041V17.3583H13.8865V17.3495H13.8689V17.3407H13.8426V17.332H13.825V17.3232H13.8074V17.3144H13.7898V17.3056H13.7635V17.2968H13.7459V17.288H13.7283V17.2792H13.7107V17.2704H13.6844V17.2616H13.6668V17.2529H13.6492V17.2441H13.6316V17.2353H13.6141V17.2265H13.5877V17.2177H13.5701V17.2089H13.5525V17.2001H13.535V17.1913H13.5086V17.1825H13.491V17.1738H13.4734V17.165H13.4559V17.1562H13.4295V17.1474H13.4119V17.1386H13.3943V17.1298H13.3768V17.121H13.3592V17.1122H13.3328V17.1034H13.3152V17.0947H13.2977V17.0859H13.2801V17.0771H13.2537V17.0683H13.2361V17.0595H13.2186V17.0507H13.201V17.0419H13.1746V17.0331H13.157V17.0243H13.1395V17.0156H13.1219V17.0068H13.0955V16.998H13.0779V16.9892H13.0604V16.9804H13.0428V16.9716H13.0252V16.9628H12.9988V16.954H12.9813V16.9452H12.9637V16.9365H12.9461V16.9277H12.9197V16.9189H12.9022V16.9101H12.8846V16.9013H12.867V16.8925H12.8494V16.8837H12.8319V16.8749H12.8055V16.8661H12.7879V16.8574H12.7703V16.8486H12.7528V16.8398H12.7352V16.831H12.7176V16.8222H12.6912V16.8134H12.6737V16.8046H12.6561V16.7958H12.6385V16.787H12.6209V16.7783H12.6033V16.7695H12.577V16.7607H12.5594V16.7519H12.5418V16.7431H12.5242V16.7343H12.5067V16.7255H12.4891V16.7167H12.4627V16.7079H12.4451V16.6992H12.4276V16.6904H12.41V16.6816H12.3924V16.6728H12.366V16.664H12.3485V16.6552H12.3309V16.6464H12.3133V16.6376H12.2957V16.6288H12.2782V16.6201H12.2518V16.6113H12.2342V16.6025H12.2166V16.5937H12.1991V16.5849H12.1815V16.5761H12.1639V16.5673H12.1375V16.5585H12.12V16.5497H12.1024V16.541H12.0848V16.5322H12.0672V16.5234H12.0496V16.5146H12.0233V16.5058H12.0057V16.497H11.9881V16.4882H11.9705V16.4794H11.953V16.4706H11.9354V16.4619H11.9178V16.4531H11.9002V16.4443H11.8826V16.4355H11.8651V16.4267H11.8387V16.4179H11.8211V16.4091H11.8035V16.4003H11.786V16.3915H11.7684V16.3828H11.7508V16.374H11.7332V16.3652H11.7157V16.3564H11.6981V16.3476H11.6717V16.3388H11.6541V16.33H11.6366V16.3212H11.619V16.3124H11.6014V16.3037H11.5838V16.2949H11.5662V16.2861H11.5487V16.2773H11.5311V16.2685H11.5135V16.2597H11.4871V16.2509H11.4696V16.2421H11.452V16.2333H11.4344V16.2246H11.4168V16.2158H11.3993V16.207H11.3817V16.1982H11.3641V16.1894H11.3465V16.1806H11.3202V16.1718H11.3026V16.163H11.285V16.1542H11.2674V16.1455H11.2498V16.1367H11.2323V16.1279H11.2147V16.1191H11.1971V16.1103H11.1795V16.1015H11.162V16.0927H11.1444V16.0839H11.1268V16.0751H11.1092V16.0664H11.0916V16.0576H11.0653V16.0488H11.0477V16.04H11.0301V16.0312H11.0125V16.0224H10.995V16.0136H10.9774V16.0048H10.9598V15.996H10.9422V15.9873H10.9247V15.9785H10.9071V15.9697H10.8895V15.9609H10.8719V15.9521H10.8543V15.9433H10.8368V15.9345H10.8192V15.9257H10.8016V15.9169H10.784V15.9082H10.7665V15.8994H10.7489V15.8906H10.7313V15.8818H10.7137V15.873H10.6961V15.8642H10.6786V15.8554H10.6522V15.8466H10.6346V15.8378H10.617V15.8291H10.5995V15.8203H10.5819V15.8115H10.5643V15.8027H10.5467V15.7939H10.5292V15.7851H10.5116V15.7763H10.494V15.7675H10.4764V15.7587H10.4588V15.75H10.4413V15.7412H10.4237V15.7324H10.4061V15.7236H10.3885V15.7148H10.371V15.706H10.3534V15.6972H10.3358V15.6884H10.3182V15.6796H10.3006V15.6709H10.2831V15.6621H10.2655V15.6533H10.2479V15.6445H10.2303V15.6357H10.2127V15.6269H10.1952V15.6181H10.1776V15.6093H10.16V15.6005H10.1424V15.5918H10.1249V15.583H10.1073V15.5742H10.0897V15.5654H10.0721V15.5566H10.0545V15.5478H10.037V15.539H10.0194V15.5302H10.0018V15.5214H9.98424V15.5127H9.96666V15.5039H9.94908V15.4951H9.9315V15.4863H9.91393V15.4775H9.90514V15.4687H9.88756V15.4599H9.86998V15.4511H9.8524V15.4423H9.83483V15.4335H9.81725V15.4248H9.79967V15.416H9.78209V15.4072H9.76451V15.3984H9.74694V15.3896H9.72936V15.3808H9.71178V15.372H9.6942V15.3632H9.67662V15.3544H9.65905V15.3457H9.64147V15.3369H9.62389V15.3281H9.60631V15.3193H9.58873V15.3105H9.57116V15.3017H9.55358V15.2929H9.536V15.2841H9.51842V15.2753H9.50085V15.2666H9.49206V15.2578H9.47448V15.249H9.4569V15.2402H9.43932V15.2314H9.42175V15.2226H9.40417V15.2138H9.38659V15.205H9.36901V15.1962H9.35143V15.1875H9.33386V15.1787H9.31628V15.1699H9.30749V15.1611H9.28991V15.1523H9.27233V15.1435H9.25476V15.1347H9.23718V15.1259H9.2196V15.1171H9.20202V15.1084H9.18444V15.0996H9.16687V15.0908H9.14929V15.082H9.13171V15.0732H9.11413V15.0644H9.10534V15.0556H9.08777V15.0468H9.07019V15.038H9.05261V15.0293H9.03503V15.0205H9.01745V15.0117H8.99988V15.0029H8.9823V14.9941H8.96472V14.9853H8.94714V14.9765H8.92956V14.9677H8.92078V14.9589H8.9032V14.9502H8.88562V14.9414H8.86804V14.9326H8.85046V14.9238H8.83289V14.915H8.81531V14.9062H8.79773V14.8974H8.78894V14.8886H8.77136V14.8798H8.75379V14.8711H8.73621V14.8623H8.71863V14.8535H8.70105V14.8447H8.69226V14.8359H8.67469V14.8271H8.65711V14.8183H8.63953V14.8095H8.62195V14.8007H8.60437V14.792H8.5868V14.7832H8.57801V14.7744H8.56043V14.7656H8.54285V14.7568H8.52527V14.748H8.5077V14.7392H8.49012V14.7304H8.48133V14.7216H8.46375V14.7129H8.44617V14.7041H8.42859V14.6953H8.41102V14.6865H8.39344V14.6777H8.37586V14.6689H8.36707V14.6601H8.34949V14.6513H8.33192V14.6425H8.31434V14.6338H8.29676V14.625H8.27918V14.6162H8.27039V14.6074H8.25282V14.5986H8.23524V14.5898H8.21766V14.581H8.20008V14.5722H8.1825V14.5634H8.16493V14.5547H8.15614V14.5459H8.13856V14.5371H8.12098V14.5283H8.1034V14.5195H8.08583V14.5107H8.07704V14.5019H8.05946V14.4931H8.04188V14.4843H8.0243V14.4756H8.01551V14.4668H7.99794V14.458H7.98036V14.4492H7.96278V14.4404H7.9452V14.4316H7.93641V14.4228H7.91884V14.414H7.90126V14.4052H7.88368V14.3965H7.87489V14.3877H7.85731V14.3789H7.83974V14.3701H7.82216V14.3613H7.80458V14.3525H7.79579V14.3437H7.77821V14.3349H7.76064V14.3261H7.74306V14.3174H7.73427V14.3086H7.71669V14.2998H7.69911V14.291H7.68153V14.2822H7.66396V14.2734H7.65517V14.2646H7.63759V14.2558H7.62001V14.247H7.60243V14.2383H7.59365V14.2295H7.57607V14.2207H7.55849V14.2119H7.54091V14.2031H7.52333V14.1943H7.51454V14.1855H7.49697V14.1767H7.47939V14.1679H7.46181V14.1592H7.45302V14.1504H7.43544V14.1416H7.41787V14.1328H7.40908V14.124H7.3915V14.1152H7.37392V14.1064H7.35634V14.0976H7.34756V14.0888H7.32998V14.0801H7.3124V14.0713H7.30361V14.0625H7.28603V14.0537H7.26845V14.0449H7.25088V14.0361H7.24209V14.0273H7.22451V14.0185H7.20693V14.0097H7.19814V14.001H7.18057V13.9922H7.16299V13.9834H7.14541V13.9746H7.13662V13.9658H7.11904V13.957H7.10146V13.9482H7.09268V13.9394H7.0751V13.9306H7.05752V13.9219H7.03994V13.9131H7.03115V13.9043H7.01358V13.8955H6.996V13.8867H6.98721V13.8779H6.96963V13.8691H6.95205V13.8603H6.93447V13.8515H6.92569V13.8428H6.90811V13.834H6.89053V13.8252H6.88174V13.8164H6.86416V13.8076H6.84659V13.7988H6.82901V13.79H6.82022V13.7812H6.80264V13.7724H6.78506V13.7637H6.77627V13.7549H6.7587V13.7461H6.74991V13.7373H6.73233V13.7285H6.71475V13.7197H6.70596V13.7109H6.68838V13.7021H6.67081V13.6933H6.66202V13.6846H6.64444V13.6758H6.62686V13.667H6.61807V13.6582H6.60049V13.6494H6.58292V13.6406H6.57413V13.6318H6.55655V13.623H6.54776V13.6142H6.53018V13.6054H6.51261V13.5967H6.50382V13.5879H6.48624V13.5791H6.46866V13.5703H6.45987V13.5615H6.44229V13.5527H6.42472V13.5439H6.41593V13.5351H6.39835V13.5264H6.38077V13.5176H6.37198V13.5088H6.3544V13.5H6.33683V13.4912H6.32804V13.4824H6.31046V13.4736H6.30167V13.4648H6.28409V13.456H6.26652V13.4472H6.25773V13.4385H6.24015V13.4297H6.22257V13.4209H6.21378V13.4121H6.1962V13.4033H6.17863V13.3945H6.16984V13.3857H6.15226V13.3769H6.14347V13.3681H6.12589V13.3594H6.1171V13.3506H6.09953V13.3418H6.08195V13.333H6.07316V13.3242H6.05558V13.3154H6.04679V13.3066H6.02921V13.2978H6.02042V13.289H6.00285V13.2803H5.98527V13.2715H5.97648V13.2627H5.9589V13.2539H5.95011V13.2451H5.93254V13.2363H5.92375V13.2275H5.90617V13.2187H5.88859V13.2099H5.8798V13.2012H5.86222V13.1924H5.85344V13.1836H5.83586V13.1748H5.81828V13.166H5.80949V13.1572H5.79191V13.1484H5.78312V13.1396H5.76555V13.1308H5.75676V13.1221H5.73918V13.1133H5.7216V13.1045H5.71281V13.0957H5.69523V13.0869H5.68645V13.0781H5.66887V13.0693H5.66008V13.0605H5.6425V13.0517H5.62492V13.043H5.61613V13.0342H5.59856V13.0254H5.58977V13.0166H5.57219V13.0078H5.5634V12.999H5.54582V12.9902H5.53703V12.9814H5.51946V12.9726H5.51067V12.9639H5.49309V12.9551H5.4843V12.9463H5.46672V12.9375H5.45793V12.9287H5.44035V12.9199H5.43157V12.9111H5.41399V12.9023H5.4052V12.8935H5.38762V12.8848H5.37883V12.876H5.36125V12.8672H5.35247V12.8584H5.33489V12.8496H5.3261V12.8408H5.30852V12.832H5.29973V12.8232H5.28215V12.8144H5.27337V12.8057H5.25579V12.7969H5.247V12.7881H5.22942V12.7793H5.22063V12.7705H5.20305V12.7617H5.18548V12.7529H5.17669V12.7441H5.15911V12.7353H5.15032V12.7266H5.13274V12.7178H5.12395V12.709H5.10637V12.7002H5.09759V12.6914H5.08001V12.6826H5.07122V12.6738H5.05364V12.665H5.04485V12.6562H5.02727V12.6475H5.01849V12.6387H5.0097V12.6299H4.99212V12.6211H4.98333V12.6123H4.96575V12.6035H4.95696V12.5947H4.93938V12.5859H4.9306V12.5771H4.91302V12.5684H4.90423V12.5596H4.89544V12.5508H4.87786V12.542H4.86907V12.5332H4.8515V12.5244H4.84271V12.5156H4.82513V12.5068H4.81634V12.498H4.80755V12.4893H4.78997V12.4805H4.78118V12.4717H4.76361V12.4629H4.75482V12.4541H4.73724V12.4453H4.72845V12.4365H4.71087V12.4277H4.70208V12.4189H4.69329V12.4102H4.67572V12.4014H4.66693V12.3926H4.64935V12.3838H4.64056V12.375H4.62298V12.3662H4.61419V12.3574H4.59662V12.3486H4.58783V12.3398H4.57904V12.3311H4.56146V12.3223H4.55267V12.3135H4.53509V12.3047H4.5263V12.2959H4.50873V12.2871H4.49994V12.2783H4.49115V12.2695H4.47357V12.2607H4.46478V12.252H4.45599V12.2432H4.43842V12.2344H4.42963V12.2256H4.41205V12.2168H4.40326V12.208H4.39447V12.1992H4.37689V12.1904H4.3681V12.1816H4.35931V12.1729H4.34174V12.1641H4.33295V12.1553H4.31537V12.1465H4.30658V12.1377H4.29779V12.1289H4.28021V12.1201H4.27143V12.1113H4.26264V12.1025H4.24506V12.0938H4.23627V12.085H4.21869V12.0762H4.2099V12.0674H4.20111V12.0586H4.18354V12.0498H4.17475V12.041H4.16596V12.0322H4.14838V12.0234H4.13959V12.0147H4.1308V12.0059H4.11322V11.9971H4.10444V11.9883H4.08686V11.9795H4.07807V11.9707H4.06928V11.9619H4.0517V11.9531H4.04291V11.9443H4.03412V11.9356H4.01655V11.9268H4.00776V11.918H3.99018V11.9092H3.98139V11.9004H3.9726V11.8916H3.96381V11.8828H3.94623V11.874H3.93745V11.8652H3.92866V11.8565H3.91108V11.8477H3.90229V11.8389H3.8935V11.8301H3.87592V11.8213H3.86713V11.8125H3.85835V11.8037H3.84956V11.7949H3.83198V11.7861H3.82319V11.7773H3.8144V11.7686H3.79682V11.7598H3.78803V11.751H3.77924V11.7422H3.76167V11.7334H3.75288V11.7246H3.74409V11.7158H3.7353V11.707H3.71772V11.6982H3.70893V11.6895H3.70014V11.6807H3.68257V11.6719H3.67378V11.6631H3.66499V11.6543H3.64741V11.6455H3.63862V11.6367H3.62983V11.6279H3.61225V11.6191H3.60347V11.6104H3.59468V11.6016H3.58589V11.5928H3.56831V11.584H3.55952V11.5752H3.55073V11.5664H3.53315V11.5576H3.52437V11.5488H3.51558V11.54H3.50679V11.5313H3.48921V11.5225H3.48042V11.5137H3.47163V11.5049H3.46284V11.4961H3.44527V11.4873H3.43648V11.4785H3.42769V11.4697H3.4189V11.4609H3.40132V11.4522H3.39253V11.4434H3.38374V11.4346H3.37495V11.4258H3.36616V11.417H3.34859V11.4082H3.3398V11.3994H3.33101V11.3906H3.32222V11.3818H3.30464V11.3731H3.29585V11.3643H3.28706V11.3555H3.27828V11.3467H3.2607V11.3379H3.25191V11.3291H3.24312V11.3203H3.23433V11.3115H3.22554V11.3027H3.20796V11.294H3.19917V11.2852H3.19039V11.2764H3.1816V11.2676H3.16402V11.2588H3.15523V11.25H3.14644V11.2412H3.13765V11.2324H3.12007V11.2236H3.11129V11.2149H3.1025V11.2061H3.09371V11.1973H3.07613V11.1885H3.06734V11.1797H3.05855V11.1709H3.04976V11.1621H3.04097V11.1533H3.03218V11.1445H3.01461V11.1358H3.00582V11.127H2.99703V11.1182H2.98824V11.1094H2.97945V11.1006H2.97066V11.0918H2.95308V11.083H2.9443V11.0742H2.93551V11.0654H2.92672V11.0567H2.91793V11.0479H2.90914V11.0391H2.89156V11.0303H2.88277V11.0215H2.87398V11.0127H2.86519V11.0039H2.85641V10.9951H2.84762V10.9863H2.83004V10.9776H2.82125V10.9688H2.81246V10.96H2.80367V10.9512H2.79488V10.9424H2.78609V10.9336H2.76852V10.9248H2.75973V10.916H2.75094V10.9072H2.74215V10.8985H2.73336V10.8897H2.72457V10.8809H2.70699V10.8721H2.6982V10.8633H2.68942V10.8545H2.68063V10.8457H2.67184V10.8369H2.66305V10.8281H2.65426V10.8194H2.63668V10.8106H2.62789V10.8018H2.6191V10.793H2.61032V10.7842H2.60153V10.7754H2.59274V10.7666H2.58395V10.7578H2.57516V10.749H2.56637V10.7403H2.55758V10.7315H2.54V10.7227H2.53122V10.7139H2.52243V10.7051H2.51364V10.6963H2.50485V10.6875H2.49606V10.6787H2.48727V10.6699H2.47848V10.6612H2.46969V10.6524H2.4609V10.6436H2.44333V10.6348H2.43454V10.626H2.42575V10.6172H2.41696V10.6084H2.40817V10.5996H2.39938V10.5908H2.39059V10.5821H2.3818V10.5733H2.37301V10.5645H2.36423V10.5557H2.34665V10.5469H2.33786V10.5381H2.32907V10.5293H2.32028V10.5205H2.31149V10.5117H2.3027V10.503H2.29391V10.4942H2.28512V10.4854H2.27634V10.4766H2.26755V10.4678H2.25876V10.459H2.24997V10.4502H2.23239V10.4414H2.2236V10.4326H2.21481V10.4239H2.20602V10.4151H2.19724V10.4063H2.18845V10.3975H2.17966V10.3887H2.17087V10.3799H2.16208V10.3711H2.15329V10.3623H2.1445V10.3535H2.13571V10.3448H2.12692V10.336H2.11813V10.3272H2.10935V10.3184H2.10056V10.3096H2.09177V10.3008H2.08298V10.292H2.07419V10.2832H2.0654V10.2744H2.05661V10.2657H2.04782V10.2569H2.03903V10.2481H2.03025V10.2393H2.02146V10.2305H2.01267V10.2217H2.00388V10.2129H1.99509V10.2041H1.9863V10.1953H1.97751V10.1866H1.96872V10.1778H1.95993V10.169H1.95115V10.1602H1.94236V10.1514H1.92478V10.1426H1.91599V10.1338H1.9072V10.125H1.89841V10.1162H1.88962V10.1075H1.88083V10.0987H1.87204V10.0899H1.86326V10.0723H1.85447V10.0635H1.84568V10.0547H1.83689V10.0459H1.8281V10.0371H1.81931V10.0284H1.81052V10.0196H1.80173V10.0108H1.79294V10.002H1.78416V9.99319H1.77537V9.98441H1.76658V9.97562H1.75779V9.96683H1.749V9.95804H1.74021V9.94925H1.73142V9.94046H1.72263V9.93167H1.71384V9.92288H1.70505V9.91409H1.69627V9.90531H1.68748V9.89652H1.67869V9.88773H1.6699V9.87894H1.66111V9.87015H1.65232V9.86136H1.64353V9.85257H1.63474V9.83499H1.62595V9.8262H1.61717V9.81742H1.60838V9.80863H1.59959V9.79984H1.5908V9.79105H1.58201V9.78226H1.57322V9.77347H1.56443V9.76468H1.55564V9.75589H1.54685V9.7471H1.53806V9.73832H1.52928V9.72953H1.52049V9.72074H1.5117V9.71195H1.50291V9.69437H1.49412V9.68558H1.48533V9.67679H1.47654V9.668H1.46775V9.65922H1.45896V9.65043H1.45018V9.64164H1.44139V9.63285H1.4326V9.61527H1.42381V9.60648H1.41502V9.59769H1.40623V9.5889H1.39744V9.58011H1.38865V9.57133H1.37986V9.56254H1.37107V9.55375H1.36229V9.54496H1.3535V9.52738H1.34471V9.51859H1.33592V9.5098H1.32713V9.50101H1.31834V9.49223H1.30955V9.48344H1.30076V9.47465H1.29197V9.46586H1.28319V9.44828H1.2744V9.43949H1.26561V9.4307H1.25682V9.42191H1.24803V9.41312H1.23924V9.40434H1.23045V9.39555H1.22166V9.38676H1.21287V9.36918H1.20408V9.36039H1.1953V9.3516H1.18651V9.34281H1.17772V9.33402H1.16893V9.31645H1.16014V9.30766H1.15135V9.29887H1.14256V9.29008H1.13377V9.2725H1.12498V9.26371H1.1162V9.25492H1.10741V9.24614H1.09862V9.23735H1.08983V9.21977H1.08104V9.21098H1.07225V9.20219H1.06346V9.1934H1.05467V9.18461H1.04588V9.16703H1.0371V9.15825H1.02831V9.14946H1.01952V9.14067H1.01073V9.13188H1.00194V9.1143H0.99315V9.10551H0.984361V9.09672H0.975573V9.08793H0.966784V9.07915H0.957995V9.06157H0.949206V9.05278H0.940417V9.04399H0.931628V9.0352H0.922839V9.01762H0.91405V9.00883H0.905261V9.00004H0.896472V8.98247H0.887683V8.97368H0.878894V8.96489H0.870105V8.94731H0.861316V8.93852H0.852527V8.92973H0.843738V8.91216H0.834949V8.90337H0.82616V8.89458H0.817372V8.88579H0.808583V8.86821H0.799794V8.85942H0.791005V8.85063H0.782216V8.83306H0.773427V8.82427H0.764638V8.81548H0.755849V8.7979H0.74706V8.78911H0.738271V8.78032H0.729482V8.76274H0.720693V8.75395H0.711904V8.74516H0.703115V8.72759H0.694326V8.7188H0.685537V8.71001H0.676749V8.70122H0.66796V8.68364H0.659171V8.67485H0.650382V8.65728H0.641593V8.64849H0.632804V8.63091H0.624015V8.62212H0.615226V8.61333H0.606437V8.59575H0.597648V8.58696H0.588859V8.56939H0.58007V8.5606H0.571281V8.54302H0.562492V8.53423H0.553703V8.52544H0.544914V8.50786H0.536125V8.49907H0.527336V8.4815H0.518548V8.47271H0.509759V8.45513H0.50097V8.44634H0.492181V8.42876H0.483392V8.41998H0.474603V8.41119H0.465814V8.39361H0.457025V8.38482H0.448236V8.36724H0.439447V8.35845H0.430658V8.34087H0.421869V8.33208H0.41308V8.31451H0.404291V8.30572H0.395502V8.28814H0.386713V8.27935H0.377924V8.26177H0.369136V8.2442H0.360347V8.23541H0.351558V8.21783H0.342769V8.20904H0.33398V8.19146H0.325191V8.17388H0.316402V8.16509H0.307613V8.14752H0.298824V8.13873H0.290035V8.12115H0.281246V8.11236H0.272457V8.09478H0.263668V8.07721H0.254879V8.06842H0.24609V8.05084H0.237301V8.04205H0.228512V8.02447H0.219724V8.0069H0.210935V7.99811H0.202146V7.98053H0.193357V7.97174H0.184568V7.95416H0.175779V7.93658H0.16699V7.919H0.158201V7.91022H0.149412V7.89264H0.140623V7.87506H0.131834V7.85748H0.123045V7.84869H0.114256V7.83112H0.105467V7.81354H0.0966784V7.80475H0.0878894V7.78717H0.0791005V7.76959H0.0703115V7.75201H0.0615226V7.74323H0.0527336V7.72565H0.0439447V7.70807H0.0351558V7.69049H0.0263668V7.67291H0.0175779V7.65534H0.00878894V7.64655H0V7.59381H0.00878894V7.55866H0.0175779V7.53229H0.0263668V7.50592H0.0351558V7.47956H0.0439447V7.4444H0.0527336V7.41804H0.0615226V7.39167H0.0703115V7.3653H0.0791005V7.33014H0.0878894V7.30378H0.0966784V7.27741H0.105467V7.25105H0.114256V7.22468H0.123045V7.18952H0.131834V7.16316H0.140623V7.13679H0.149412V7.11042H0.158201V7.07527H0.16699V7.0489H0.175779V7.02253H0.184568V6.99617H0.193357V6.9698H0.202146V6.93464H0.210935V6.90828H0.219724V6.88191H0.228512V6.85554H0.237301V6.82039H0.24609V6.79402H0.254879V6.76765H0.263668V6.74129H0.272457V6.70613H0.281246V6.67976H0.290035V6.6534H0.298824V6.62703H0.307613V6.60066H0.316402V6.56551H0.325191V6.53914H0.33398V6.51277H0.342769V6.48641H0.351558V6.45125H0.360347V6.42488H0.369136V6.39852H0.377924V6.37215H0.386713V6.337H0.395502V6.31063H0.404291V6.28426H0.41308V6.25789H0.421869V6.23153H0.430658V6.19637H0.439447V6.17001H0.448236V6.14364H0.457025V6.11727H0.465814V6.08212H0.474603V6.05575H0.483392V6.02938H0.492181V6.00302H0.50097V5.97665H0.509759V5.94149H0.518548V5.91513H0.527336V5.88876H0.536125V5.86239H0.544914V5.82724H0.553703V5.80087H0.562492V5.7745H0.571281V5.74814H0.58007V5.71298H0.588859V5.68661H0.597648V5.66025H0.606437V5.63388H0.615226V5.60751H0.624015V5.57236H0.632804V5.54599H0.641593V5.51962H0.650382V5.49326H0.659171V5.4581H0.66796V5.43173H0.676749V5.40537H0.685537V5.379H0.694326V5.35263H0.703115V5.31748H0.711904V5.29111H0.720693V5.26474H0.729482V5.23838H0.738271V5.20322H0.74706V5.17686H0.755849V5.15049H0.764638V5.12412H0.773427V5.08897H0.782216V5.0626H0.791005V5.03623H0.799794V5.00986H0.808583V4.9835H0.817372V4.94834H0.82616V4.92198H0.834949V4.89561H0.843738V4.86924H0.852527V4.83409H0.861316V4.80772H0.870105V4.78135H0.878894V4.75499H0.887683V4.71983H0.896472V4.69346H0.905261V4.6671H0.91405V4.64073H0.922839V4.61436H0.931628V4.57921H0.940417V4.55284H0.949206V4.52647H0.957995V4.50011H0.966784V4.46495H0.975573V4.43858H0.984361V4.41222H0.99315V4.38585H1.00194V4.35948H1.01073V4.32433H1.01952V4.29796H1.02831V4.2716H1.0371V4.24523H1.04588V4.21007H1.05467V4.1837H1.06346V4.15734H1.07225V4.13097H1.08104V4.09582H1.08983V4.06945H1.09862V4.04308H1.10741V4.01671H1.1162V3.99035H1.12498V3.95519H1.13377V3.92883H1.14256V3.90246H1.15135V3.87609H1.16014V3.84094H1.16893V3.81457H1.17772V3.7882H1.18651V3.76184H1.1953V3.72668H1.20408V3.70031H1.21287V3.67395H1.22166V3.64758H1.23045V3.62121H1.23924V3.58606H1.24803V3.55969H1.25682V3.53332H1.26561V3.50696H1.2744V3.4718H1.28319V3.44543H1.29197V3.41907H1.30076V3.3927H1.30955V3.36633H1.31834V3.33118H1.32713V3.30481H1.33592V3.27844H1.34471V3.25208H1.3535V3.21692H1.36229V3.19055H1.37107V3.16419H1.37986V3.13782H1.38865V3.10266H1.39744V3.0763H1.40623V3.04993H1.41502V3.02357H1.42381V2.9972H1.4326V2.96204H1.44139V2.93567H1.45018V2.90931H1.45896V2.88294H1.46775V2.84779H1.47654V2.82142H1.48533V2.79505H1.49412V2.76868H1.50291V2.73353H1.5117V2.70716H1.52049V2.6808H1.52928V2.65443H1.53806V2.62806H1.54685V2.59291H1.55564V2.56654H1.56443V2.54017H1.57322V2.51381H1.58201V2.47865H1.5908V2.45228H1.59959V2.42592H1.60838V2.39955H1.61717V2.37318H1.62595V2.33803H1.63474V2.31166H1.64353V2.28529H1.65232V2.25893H1.66111V2.22377H1.6699V2.1974H1.67869V2.17104H1.68748V2.14467H1.69627V2.10951H1.70505V2.08315H1.71384V2.05678H1.72263V2.03041H1.73142V2.00405H1.74021V1.96889H1.749V1.94252H1.75779V1.91616H1.76658V1.88979H1.77537V1.85464H1.78416V1.82827H1.79294V1.8019H1.80173V1.77554H1.81052V1.74038H1.81931V1.71401H1.8281V1.68764H1.83689V1.66128H1.84568V1.63491H1.85447V1.59976H1.86326V1.57339H1.87204V1.54702H1.88083V1.52065H1.88962V1.4855H1.89841V1.45913H1.9072V1.43277H1.91599V1.4064H1.92478V1.38003H1.93357V1.34488H1.94236V1.31851H1.95115V1.29214H1.95993V1.26578H1.96872V1.23062H1.97751V1.20425H1.9863V1.17789H1.99509V1.15152H2.00388V1.11636H2.01267V1.09H2.02146V1.06363H2.03025V1.03726H2.03903V1.0109H2.04782V0.97574H2.05661V0.949375H2.0654V0.923008H2.07419V0.896641H2.08298V0.861485H2.09177V0.835117H2.10056V0.808752H2.10935V0.782385H2.11813V0.756018H2.12692V0.720861H2.13571V0.694494H2.1445V0.668129H2.15329V0.641762H2.16208V0.606606H2.17087V0.580238H2.17966V0.553871H2.18845V0.527506H2.19724V0.49235H2.20602V0.465982H2.21481V0.439615H2.2236V0.413248H2.23239V0.386883H2.24118V0.351727H2.24997V0.325359H2.25876V0.298992H2.26755V0.272625H2.27634V0.237471H2.28512V0.211103H2.29391V0.184736H2.3027V0.158369H2.31149V0.123215H2.32028V0.0968475H2.32907V0.0704803H2.33786V0.0441132H2.34665V0.017746H2.35544V0.000167847H2.37301V0.017746H2.3818V0.0353241H2.39059V0.0529022H2.39938V0.0616913H2.40817V0.0792694H2.41696V0.0968475H2.42575V0.114426H2.43454V0.132002H2.44333V0.140791H2.45211V0.158369H2.4609V0.175947H2.46969V0.184736H2.47848V0.202314H2.48727V0.219893H2.49606V0.237471H2.50485V0.24626H2.51364V0.263836H2.52243V0.281414H2.53122V0.298992H2.54V0.307781H2.54879V0.325359H2.55758V0.342937H2.56637V0.351727H2.57516V0.369305H2.58395V0.386883H2.59274V0.395672H2.60153V0.413248H2.61032V0.422037H2.6191V0.439615H2.62789V0.457193H2.63668V0.465982H2.64547V0.483561H2.65426V0.49235H2.66305V0.509928H2.67184V0.518717H2.68063V0.536295H2.68942V0.553871H2.6982V0.56266H2.70699V0.580238H2.71578V0.589027H2.72457V0.606606H2.73336V0.624184H2.74215V0.632973H2.75094V0.650551H2.75973V0.65934H2.76852V0.676918H2.77731V0.694494H2.78609V0.703283H2.79488V0.712072H2.80367V0.72965H2.81246V0.73844H2.82125V0.756018H2.83004V0.764807H2.83883V0.782385H2.84762V0.791174H2.85641V0.808752H2.86519V0.817539H2.87398V0.826328H2.88277V0.843906H2.89156V0.852695H2.90035V0.870274H2.90914V0.879063H2.91793V0.896641H2.92672V0.90543H2.93551V0.914219H2.9443V0.931797H2.95308V0.940586H2.96187V0.958162H2.97066V0.966951H2.97945V0.984529H2.98824V0.993319H2.99703V1.0109H3.00582V1.01969H3.01461V1.02847H3.0234V1.04605H3.03218V1.05484H3.04097V1.07242H3.04976V1.08121H3.05855V1.09H3.06734V1.10757H3.07613V1.11636H3.08492V1.12515H3.09371V1.13394H3.1025V1.15152H3.11129V1.16031H3.12007V1.1691H3.12886V1.18668H3.13765V1.19547H3.14644V1.20425H3.15523V1.22183H3.16402V1.23062H3.17281V1.23941H3.1816V1.25699H3.19039V1.26578H3.19917V1.27456H3.20796V1.29214H3.21675V1.30093H3.22554V1.30972H3.23433V1.31851H3.24312V1.33609H3.25191V1.34488H3.2607V1.35367H3.26949V1.37124H3.27828V1.38003H3.28706V1.38882H3.29585V1.4064H3.30464V1.41519H3.31343V1.42398H3.32222V1.43277H3.33101V1.45034H3.3398V1.45913H3.34859V1.46792H3.35738V1.47671H3.36616V1.4855H3.37495V1.50308H3.38374V1.51187H3.39253V1.52065H3.40132V1.52944H3.41011V1.53823H3.4189V1.55581H3.42769V1.5646H3.43648V1.57339H3.44527V1.58218H3.45405V1.59097H3.46284V1.60855H3.47163V1.61733H3.48042V1.62612H3.48921V1.63491H3.498V1.65249H3.50679V1.66128H3.51558V1.67007H3.52437V1.67886H3.53315V1.68764H3.54194V1.70522H3.55073V1.71401H3.55952V1.7228H3.56831V1.73159H3.5771V1.74038H3.58589V1.75796H3.59468V1.76675H3.60347V1.77554H3.61225V1.78432H3.62104V1.79311H3.62983V1.8019H3.63862V1.81069H3.64741V1.81948H3.6562V1.83706H3.66499V1.84585H3.67378V1.85464H3.68257V1.86342H3.69136V1.87221H3.70014V1.881H3.70893V1.88979H3.71772V1.89858H3.72651V1.91616H3.7353V1.92495H3.74409V1.93373H3.75288V1.94252H3.76167V1.95131H3.77046V1.9601H3.77924V1.96889H3.78803V1.97768H3.79682V1.98647H3.80561V2.00405H3.8144V2.01284H3.82319V2.02163H3.83198V2.03041H3.84077V2.0392H3.84956V2.04799H3.85835V2.05678H3.86713V2.06557H3.87592V2.08315H3.88471V2.09194H3.8935V2.10073H3.90229V2.10951H3.91108V2.1183H3.91987V2.12709H3.92866V2.13588H3.93745V2.14467H3.94623V2.15346H3.95502V2.16225H3.96381V2.17104H3.9726V2.17983H3.98139V2.18862H3.99018V2.1974H3.99897V2.20619H4.00776V2.21498H4.01655V2.23256H4.02534V2.24135H4.03412V2.25014H4.04291V2.25893H4.0517V2.26772H4.06049V2.2765H4.06928V2.28529H4.07807V2.29408H4.08686V2.30287H4.09565V2.31166H4.10444V2.32045H4.11322V2.32924H4.12201V2.33803H4.1308V2.34682H4.13959V2.3556H4.14838V2.36439H4.15717V2.37318H4.16596V2.38197H4.17475V2.39076H4.18354V2.39955H4.19233V2.40834H4.20111V2.41713H4.2099V2.42592H4.21869V2.43471H4.22748V2.44349H4.23627V2.46107H4.24506V2.46986H4.25385V2.47865H4.26264V2.48744H4.27143V2.49623H4.28021V2.50502H4.29779V2.51381H4.30658V2.52259H4.31537V2.53138H4.32416V2.54017H4.33295V2.54896H4.34174V2.55775H4.35053V2.56654H4.35931V2.57533H4.3681V2.58412H4.37689V2.59291H4.38568V2.6017H4.39447V2.61049H4.40326V2.61927H4.41205V2.62806H4.42084V2.63685H4.42963V2.64564H4.43842V2.65443H4.4472V2.66322H4.45599V2.67201H4.46478V2.6808H4.47357V2.68958H4.48236V2.69837H4.49115V2.70716H4.49994V2.71595H4.50873V2.72474H4.51752V2.73353H4.5263V2.74232H4.53509V2.75111H4.54388V2.7599H4.55267V2.76868H4.56146V2.77747H4.57025V2.78626H4.57904V2.79505H4.58783V2.80384H4.60541V2.81263H4.61419V2.82142H4.62298V2.83021H4.63177V2.839H4.64056V2.84779H4.64935V2.85658H4.65814V2.86536H4.66693V2.87415H4.67572V2.88294H4.68451V2.89173H4.69329V2.90052H4.70208V2.90931H4.71087V2.9181H4.72845V2.92689H4.73724V2.93567H4.74603V2.94446H4.75482V2.95325H4.76361V2.96204H4.7724V2.97083H4.78118V2.97962H4.78997V2.98841H4.79876V2.9972H4.80755V3.00599H4.82513V3.01478H4.83392V3.02357H4.84271V3.03235H4.8515V3.04114H4.86028V3.04993H4.86907V3.05872H4.87786V3.06751H4.88665V3.0763H4.89544V3.08509H4.90423V3.09388H4.92181V3.10266H4.9306V3.11145H4.93938V3.12024H4.94817V3.12903H4.95696V3.13782H4.96575V3.14661H4.97454V3.1554H4.98333V3.16419H4.99212V3.17298H5.00091V3.18176H5.0097V3.19055H5.02727V3.19934H5.03606V3.20813H5.04485V3.21692H5.05364V3.22571H5.06243V3.2345H5.07122V3.24329H5.0888V3.25208H5.09759V3.26087H5.10637V3.26966H5.11516V3.27844H5.12395V3.28723H5.13274V3.29602H5.15032V3.30481H5.15911V3.3136H5.1679V3.32239H5.17669V3.33118H5.18548V3.33997H5.19426V3.34875H5.21184V3.35754H5.22063V3.36633H5.22942V3.37512H5.23821V3.38391H5.247V3.3927H5.25579V3.40149H5.27337V3.41028H5.28215V3.41907H5.29094V3.42786H5.29973V3.43665H5.30852V3.44543H5.31731V3.45422H5.33489V3.46301H5.34368V3.4718H5.35247V3.48059H5.36125V3.48938H5.37004V3.49817H5.37883V3.50696H5.39641V3.51575H5.4052V3.52453H5.41399V3.53332H5.42278V3.54211H5.43157V3.5509H5.44035V3.55969H5.45793V3.56848H5.46672V3.57727H5.47551V3.58606H5.4843V3.59484H5.50188V3.60363H5.51067V3.61242H5.51946V3.62121H5.52824V3.63H5.53703V3.63879H5.55461V3.64758H5.5634V3.65637H5.57219V3.66516H5.58098V3.67395H5.59856V3.68274H5.60734V3.69152H5.61613V3.70031H5.62492V3.7091H5.6425V3.71789H5.65129V3.72668H5.66008V3.73547H5.66887V3.74426H5.67766V3.75305H5.69523V3.76184H5.70402V3.77062H5.71281V3.77941H5.7216V3.7882H5.73918V3.79699H5.74797V3.80578H5.75676V3.81457H5.76555V3.82336H5.78312V3.83215H5.79191V3.84094H5.8007V3.84973H5.80949V3.85851H5.82707V3.8673H5.83586V3.87609H5.84465V3.88488H5.85344V3.89367H5.86222V3.90246H5.8798V3.91125H5.88859V3.92004H5.89738V3.92883H5.91496V3.93761H5.92375V3.9464H5.93254V3.95519H5.94132V3.96398H5.9589V3.97277H5.96769V3.98156H5.97648V3.99035H5.99406V3.99914H6.00285V4.00793H6.01164V4.01671H6.02921V4.0255H6.038V4.03429H6.04679V4.04308H6.05558V4.05187H6.07316V4.06066H6.08195V4.06945H6.09074V4.07824H6.10831V4.08703H6.1171V4.09582H6.12589V4.1046H6.14347V4.11339H6.15226V4.12218H6.16105V4.13097H6.16984V4.13976H6.18741V4.14855H6.1962V4.15734H6.20499V4.16613H6.22257V4.17492H6.23136V4.1837H6.24015V4.19249H6.25773V4.20128H6.26652V4.21007H6.2753V4.21886H6.29288V4.22765H6.30167V4.23644H6.31046V4.24523H6.31925V4.25402H6.33683V4.26281H6.34562V4.2716H6.3544V4.28038H6.37198V4.28917H6.38077V4.29796H6.38956V4.30675H6.40714V4.31554H6.41593V4.32433H6.42472V4.33312H6.44229V4.34191H6.45108V4.35069H6.46866V4.35948H6.47745V4.36827H6.48624V4.37706H6.50382V4.38585H6.51261V4.39464H6.52139V4.40343H6.53897V4.41222H6.54776V4.42101H6.56534V4.42979H6.57413V4.43858H6.58292V4.44737H6.60049V4.45616H6.60928V4.46495H6.61807V4.47374H6.63565V4.48253H6.64444V4.49132H6.66202V4.50011H6.67081V4.5089H6.6796V4.51768H6.69717V4.52647H6.70596V4.53526H6.71475V4.54405H6.73233V4.55284H6.74112V4.56163H6.74991V4.57042H6.76748V4.57921H6.77627V4.588H6.79385V4.59678H6.80264V4.60557H6.81143V4.61436H6.82901V4.62315H6.8378V4.63194H6.84659V4.64073H6.86416V4.64952H6.87295V4.65831H6.89053V4.6671H6.89932V4.67589H6.90811V4.68468H6.92569V4.69346H6.93447V4.70225H6.95205V4.71104H6.96084V4.71983H6.97842V4.72862H6.98721V4.73741H7.00479V4.7462H7.01358V4.75499H7.02236V4.76377H7.03994V4.77256H7.04873V4.78135H7.06631V4.79014H7.0751V4.79893H7.09268V4.80772H7.10146V4.81651H7.11904V4.8253H7.12783V4.83409H7.13662V4.84287H7.1542V4.85166H7.16299V4.86045H7.18057V4.86924H7.18935V4.87803H7.20693V4.88682H7.21572V4.89561H7.22451V4.9044H7.24209V4.91319H7.25088V4.92198H7.26845V4.93077H7.27724V4.93955H7.29482V4.94834H7.30361V4.95713H7.32119V4.96592H7.32998V4.97471H7.33877V4.9835H7.35634V4.99229H7.36513V5.00108H7.38271V5.00986H7.3915V5.01865H7.40908V5.02744H7.41787V5.03623H7.43544V5.04502H7.44423V5.05381H7.46181V5.0626H7.4706V5.07139H7.48818V5.08018H7.49697V5.08897H7.51454V5.09776H7.52333V5.10654H7.54091V5.11533H7.5497V5.12412H7.56728V5.13291H7.57607V5.1417H7.59365V5.15049H7.60243V5.15928H7.62001V5.16807H7.6288V5.17686H7.64638V5.18564H7.65517V5.19443H7.67275V5.20322H7.68153V5.21201H7.69911V5.2208H7.7079V5.22959H7.72548V5.23838H7.73427V5.24717H7.75185V5.25595H7.76064V5.26474H7.77821V5.27353H7.787V5.28232H7.80458V5.29111H7.81337V5.2999H7.83095V5.30869H7.83974V5.31748H7.85731V5.32627H7.8661V5.33506H7.88368V5.34385H7.89247V5.35263H7.91005V5.36142H7.91884V5.37021H7.93641V5.379H7.9452V5.38779H7.96278V5.39658H7.97157V5.40537H7.98915V5.41416H8.00673V5.42295H8.01551V5.43173H8.03309V5.44052H8.04188V5.44931H8.05946V5.4581H8.07704V5.46689H8.08583V5.47568H8.1034V5.48447H8.11219V5.49326H8.12977V5.50205H8.13856V5.51084H8.15614V5.51962H8.17372V5.52841H8.1825V5.5372H8.20008V5.54599H8.20887V5.55478H8.22645V5.56357H8.23524V5.57236H8.25282V5.58115H8.27039V5.58994H8.27918V5.59872H8.29676V5.60751H8.30555V5.6163H8.32313V5.62509H8.33192V5.63388H8.34949V5.64267H8.36707V5.65146H8.37586V5.66025H8.39344V5.66903H8.40223V5.67782H8.41981V5.68661H8.43738V5.6954H8.44617V5.70419H8.46375V5.71298H8.47254V5.72177H8.49012V5.73056H8.49891V5.73935H8.51648V5.74814H8.53406V5.75693H8.54285V5.76571H8.56043V5.7745H8.56922V5.78329H8.5868V5.79208H8.60437V5.80087H8.61316V5.80966H8.63074V5.81845H8.64832V5.82724H8.65711V5.83603H8.67469V5.84481H8.68347V5.8536H8.70105V5.86239H8.71863V5.87118H8.72742V5.87997H8.745V5.88876H8.76257V5.89755H8.77136V5.90634H8.78894V5.91513H8.80652V5.92392H8.81531V5.9327H8.83289V5.94149H8.85046V5.95028H8.85925V5.95907H8.87683V5.96786H8.88562V5.97665H8.9032V5.98544H8.92078V5.99423H8.92956V6.00302H8.94714V6.0118H8.96472V6.02059H8.97351V6.02938H8.99109V6.03817H9.00867V6.04696H9.01745V6.05575H9.03503V6.06454H9.05261V6.07333H9.0614V6.08212H9.07898V6.0909H9.08777V6.09969H9.10534V6.10848H9.12292V6.11727H9.13171V6.12606H9.14929V6.13485H9.16687V6.14364H9.17565V6.15243H9.19323V6.16122H9.21081V6.17001H9.2196V6.17879H9.23718V6.18758H9.25476V6.19637H9.27233V6.20516H9.28112V6.21395H9.2987V6.22274H9.31628V6.23153H9.32507V6.24032H9.34264V6.24911H9.36022V6.25789H9.3778V6.26668H9.38659V6.27547H9.40417V6.28426H9.42175V6.29305H9.43053V6.30184H9.44811V6.31063H9.46569V6.31942H9.48327V6.32821H9.49206V6.337H9.50963V6.34579H9.52721V6.35457H9.536V6.36336H9.55358V6.37215H9.57116V6.38094H9.58873V6.38973H9.59752V6.39852H9.6151V6.40731H9.63268V6.4161H9.64147V6.42488H9.65905V6.43367H9.67662V6.44246H9.6942V6.45125H9.70299V6.46004H9.72057V6.46883H9.73815V6.47762H9.74694V6.48641H9.76451V6.4952H9.78209V6.50398H9.79967V6.51277H9.80846V6.52156H9.82604V6.53035H9.84361V6.53914H9.8524V6.54793H9.86998V6.55672H9.88756V6.56551H9.90514V6.5743H9.92272V6.58309H9.9315V6.59188H9.94908V6.60066H9.96666V6.60945H9.98424V6.61824H9.99303V6.62703H10.0106V6.63582H10.0282V6.64461H10.0458V6.6534H10.0633V6.66219H10.0721V6.67097H10.0897V6.67976H10.1073V6.68855H10.1249V6.69734H10.1336V6.70613H10.1512V6.71492H10.1688V6.72371H10.1864V6.7325H10.204V6.74129H10.2127V6.75008H10.2303V6.75887H10.2479V6.76765H10.2655V6.77644H10.2743V6.78523H10.2919V6.79402H10.3094V6.80281H10.327V6.8116H10.3446V6.82039H10.3534V6.82918H10.371V6.83797H10.3885V6.84675H10.4061V6.85554H10.4149V6.86433H10.4325V6.87312H10.4501V6.88191H10.4676V6.8907H10.4852V6.89949H10.494V6.90828H10.5116V6.91706H10.5292V6.92585H10.5467V6.93464H10.5643V6.94343H10.5731V6.95222H10.5907V6.96101H10.6083V6.9698H10.6258V6.97859H10.6434V6.98738H10.661V6.99617H10.6786V7.00496H10.6874V7.01374H10.7049V7.02253H10.7225V7.03132H10.7401V7.04011H10.7577V7.0489H10.7752V7.05769H10.784V7.06648H10.8016V7.07527H10.8192V7.08405H10.8368V7.09284H10.8543V7.10163H10.8719V7.11042H10.8895V7.11921H10.8983V7.128H10.9159V7.13679H10.9334V7.14558H10.951V7.15437H10.9686V7.16316H10.9862V7.17195H10.995V7.18073H11.0125V7.18952H11.0301V7.19831H11.0477V7.2071H11.0653V7.21589H11.0829V7.22468H11.1004V7.23347H11.1092V7.24226H11.1268V7.25105H11.1444V7.25983H11.162V7.26862H11.1795V7.27741H11.1971V7.2862H11.2059V7.29499H11.2235V7.30378H11.2411V7.31257H11.2586V7.32136H11.2762V7.33014H11.2938V7.33893H11.3114V7.34772H11.3289V7.35651H11.3465V7.3653H11.3641V7.37409H11.3729V7.38288H11.3905V7.39167H11.408V7.40046H11.4256V7.40925H11.4432V7.41804H11.4608V7.42682H11.4784V7.43561H11.4959V7.4444H11.5135V7.45319H11.5311V7.46198H11.5487V7.47077H11.5662V7.47956H11.575V7.48835H11.5926V7.49714H11.6102V7.50592H11.6278V7.51471H11.6453V7.5235H11.6629V7.53229H11.6805V7.54108H11.6981V7.54987H11.7157V7.55866H11.7332V7.56745H11.7508V7.57624H11.7596V7.58503H11.7772V7.59381H11.7948V7.6026H11.8123V7.61139H11.8299V7.62018H11.8475V7.62897H11.8651V7.63776H11.8826V7.64655H11.9002V7.65534H11.9178V7.66413H11.9354V7.67291H11.9442V7.6817H11.9617V7.69049H11.9793V7.69928H11.9969V7.70807H12.0145V7.71686H12.0321V7.72565H12.0496V7.73444H12.0672V7.74323H12.0848V7.75201H12.1024V7.7608H12.12V7.76959H12.1375V7.77838H12.1551V7.78717H12.1727V7.79596H12.1903V7.80475H12.2078V7.81354H12.2254V7.82233H12.243V7.83112H12.2606V7.8399H12.2782V7.84869H12.2957V7.85748H12.3133V7.86627H12.3309V7.87506H12.3485V7.88385H12.366V7.89264H12.3836V7.90143H12.4012V7.91022H12.4188V7.919H12.4364V7.92779H12.4539V7.93658H12.4715V7.94537H12.4891V7.95416H12.5067V7.96295H12.5242V7.97174H12.5418V7.98053H12.5594V7.98932H12.577V7.99811H12.5858V8.0069H12.6033V8.01568H12.6209V8.02447H12.6385V8.03326H12.6561V8.04205H12.6737V8.05084H12.6912V8.05963H12.7088V8.06842H12.7264V8.07721H12.744V8.08599H12.7615V8.09478H12.7791V8.10357H12.7967V8.11236H12.8143V8.12115H12.8319V8.12994H12.8494V8.13873H12.8758V8.14752H12.8934V8.15631H12.911V8.16509H12.9285V8.17388H12.9461V8.18267H12.9637V8.19146H12.9813V8.20025H12.9988V8.20904H13.0164V8.21783H13.034V8.22662H13.0516V8.23541H13.0692V8.2442H13.0867V8.25299H13.1043V8.26177H13.1219V8.27056H13.1395V8.27935H13.157V8.28814H13.1746V8.29693H13.1922V8.30572H13.2098V8.31451H13.2274V8.3233H13.2449V8.33208H13.2625V8.34087H13.2801V8.34966H13.3065V8.35845H13.324V8.36724H13.3416V8.37603H13.3592V8.38482H13.3768V8.39361H13.3943V8.4024H13.4119V8.41119H13.4295V8.41998H13.4471V8.42876H13.4647V8.43755H13.4822V8.44634H13.4998V8.45513H13.5174V8.46392H13.535V8.47271H13.5525V8.4815H13.5701V8.49029H13.5877V8.49907H13.6053V8.50786H13.6229V8.51665H13.6492V8.52544H13.6668V8.53423H13.6844V8.54302H13.702V8.55181H13.7195V8.5606H13.7371V8.56939H13.7547V8.57817H13.7723V8.58696H13.7898V8.59575H13.8162V8.60454H13.8338V8.61333H13.8514V8.62212H13.8689V8.63091H13.8865V8.6397H13.9041V8.64849H13.9217V8.65728H13.9393V8.66607H13.9568V8.67485H13.9744V8.68364H14.0008V8.69243H14.0184V8.70122H14.0359V8.71001H14.0535V8.7188H14.0711V8.72759H14.0887V8.73638H14.1063V8.74516H14.1238V8.75395H14.1414V8.76274H14.1678V8.77153H14.1854V8.78032H14.2029V8.78911H14.2205V8.7979H14.2381V8.80669H14.2557V8.81548H14.2732V8.82427H14.2908V8.83306H14.3084V8.84184H14.3348V8.85063H14.3523V8.85942H14.3699V8.86821H14.3875V8.877H14.4051V8.88579H14.4227V8.89458H14.4402V8.90337H14.4578V8.91216H14.4842V8.92094H14.5018V8.92973H14.5193V8.93852H14.5369V8.94731H14.5545V8.9561H14.5721V8.96489H14.5984V8.97368H14.616V8.98247H14.6336V8.99125H14.6512V9.00004H14.6687V9.00883H14.6863V9.01762H14.7127V9.02641H14.7303V9.0352H14.7478V9.04399H14.7654V9.05278H14.783V9.06157H14.8006V9.07036H14.8269V9.07915H14.8445V9.08793H14.8621V9.09672H14.8797V9.10551H14.8973V9.1143H14.9148V9.12309H14.9412V9.13188H14.9588V9.14067H14.9764V9.14946H14.9939V9.15825H15.0115V9.16703H15.0291V9.17582H15.0555V9.18461H15.073V9.1934H15.0906V9.20219H15.1082V9.21098H15.1258V9.21977H15.1433V9.22856H15.1697V9.23735H15.1873V9.24614H15.2049V9.25492H15.2224V9.26371H15.24V9.2725H15.2664V9.28129H15.284V9.29008H15.3015V9.29887H15.3191V9.30766H15.3367V9.31645H15.3631V9.32524H15.3806V9.33402H15.3982V9.34281H15.4158V9.3516H15.4422V9.36039H15.4597V9.36918H15.4773V9.37797H15.4949V9.38676H15.5125V9.39555H15.5388V9.40434H15.5564V9.41312H15.574V9.42191H15.5916V9.4307H15.6179V9.43949H15.6355V9.44828H15.6531V9.45707H15.6707V9.46586H15.697V9.47465H15.7146V9.48344H15.7322V9.49223H15.7498V9.50101H15.7674V9.5098H15.7937V9.51859H15.8113V9.52738H15.8289V9.53617H15.8465V9.54496H15.8728V9.55375H15.8904V9.56254H15.908V9.57133H15.9256V9.58011H15.9519V9.5889H15.9695V9.59769H15.9871V9.60648H16.0047V9.61527H16.0222V9.62406H16.0486V9.63285H16.0662V9.64164H16.0838V9.65043H16.1013V9.65922H16.1277V9.668H16.1453V9.67679H16.1629V9.68558H16.1804V9.69437H16.2068V9.70316H16.2244V9.71195H16.242V9.72074H16.2595V9.72953H16.2859V9.73832H16.3035V9.7471H16.3211V9.75589H16.3474V9.76468H16.365V9.77347H16.3826V9.78226H16.4002V9.79105H16.4265V9.79984H16.4441V9.80863H16.4617V9.81742H16.4881V9.8262H16.5056V9.83499H16.5232V9.84378H16.5496V9.85257H16.5672V9.86136H16.5847V9.87015H16.6023V9.87894H16.6287V9.88773H16.6463V9.89652H16.6638V9.90531H16.6902V9.91409H16.7078V9.92288H16.7254V9.93167H16.7429V9.94046H16.7693V9.94925H16.7869V9.95804H16.8045V9.96683H16.8308V9.97562H16.8484V9.98441H16.866V9.99319H16.8923V10.002H16.9099V10.0108H16.9275V10.0196H16.9451V10.0284H16.9714V10.0371H16.989V10.0459H17.0066V10.0547H17.033V10.0635H17.0505V10.0723H17.0681V10.0811H17.0857V10.0899H17.1121V10.0987H17.1296V10.1075H17.1472V10.1162H17.1736V10.125H17.1912V10.1338H17.2087V10.1426H17.2351V10.1514H17.2527V10.1602H17.2703V10.169H17.2966V10.1778H17.3142V10.1866H17.3406V10.1953H17.3582V10.2041H17.3757V10.2129H17.4021V10.2217H17.4197V10.2305H17.4373V10.2393H17.4636V10.2481H17.4812V10.2569H17.4988V10.2657H17.5251V10.2744H17.5427V10.2832H17.5603V10.292H17.5867V10.3008H17.6042V10.3096H17.6218V10.3184H17.6482V10.3272H17.6658V10.336H17.6921V10.3448H17.7097V10.3535H17.7273V10.3623H17.7537V10.3711H17.7712V10.3799H17.7888V10.3887H17.8152V10.3975H17.8328V10.4063H17.8503V10.4151H17.8767V10.4239H17.8943V10.4326H17.9119V10.4414H17.9382V10.4502H17.9558V10.459H17.9822V10.4678H17.9998V10.4766H18.0173V10.4854H18.0437V10.4942H18.0613V10.503H18.0789V10.5117H18.1052V10.5205H18.1228V10.5293H18.1404V10.5381H18.1667V10.5469H18.1843V10.5557H18.2107V10.5645H18.2283V10.5733H18.2458V10.5821H18.2722V10.5908H18.2898V10.5996H18.3162V10.6084H18.3337V10.6172H18.3601V10.626H18.3777V10.6348H18.3953V10.6436H18.4216V10.6524H18.4392V10.6612H18.4656V10.6699H18.4831V10.6787H18.5007V10.6875H18.5271V10.6963H18.5447V10.7051H18.571V10.7139H18.5886V10.7227H18.615V10.7315H18.6326V10.7403H18.6501V10.749H18.6765V10.7578H18.6941V10.7666H18.7204V10.7754H18.738V10.7842H18.7556V10.793H18.782V10.8018H18.7995V10.8106H18.8259V10.8194H18.8435V10.8281H18.8611V10.8369H18.8874V10.8457H18.905V10.8545H18.9314V10.8633H18.949V10.8721H18.9753V10.8809H18.9929V10.8897H19.0105V10.8985H19.0368V10.9072H19.0544V10.916H19.0808V10.9248H19.0984V10.9336H19.1159V10.9424H19.1423V10.9512H19.1599V10.96H19.1863V10.9688H19.2038V10.9776H19.2302V10.9863H19.2478V10.9951H19.2741V11.0039H19.2917V11.0127H19.3181V11.0215H19.3357V11.0303H19.362V11.0391H19.3796V11.0479H19.406V11.0567H19.4236V11.0654H19.4411V11.0742H19.4675V11.083H19.4851V11.0918H19.5114V11.1006H19.529V11.1094H19.5554V11.1182H19.573V11.127H19.5993V11.1358H19.6169V11.1445H19.6433V11.1533H19.6609V11.1621H19.6872V11.1709H19.7048V11.1797H19.7312V11.1885H19.7488V11.1973H19.7751V11.2061H19.7927V11.2149H19.8191V11.2236H19.8366V11.2324H19.8542V11.2412H19.8806V11.25H19.8982V11.2588H19.9245V11.2676H19.9421V11.2764H19.9685V11.2852H19.9861V11.294H20.0124V11.3027H20.03V11.3115H20.0564V11.3203H20.0739V11.3291H20.1003V11.3379H20.1179V11.3467H20.1443V11.3555H20.1618V11.3643H20.1882V11.3731H20.2058V11.3818H20.2321V11.3906H20.2497V11.3994H20.2761V11.4082H20.2937V11.417H20.32V11.4258H20.3376V11.4346H20.364V11.4434H20.3816V11.4522H20.4079V11.4609H20.4255V11.4697H20.4519V11.4785H20.4694V11.4873H20.4958V11.4961H20.5134V11.5049H20.5398V11.5137H20.5661V11.5225H20.5837V11.5313H20.6101V11.54H20.6276V11.5488H20.654V11.5576H20.6716V11.5664H20.698V11.5752H20.7155V11.584H20.7419V11.5928H20.7595V11.6016H20.7858V11.6104H20.8034V11.6191H20.8298V11.6279H20.8474V11.6367H20.8737V11.6455H20.9001V11.6543H20.9177V11.6631H20.944V11.6719H20.9616V11.6807H20.988V11.6895H21.0056V11.6982H21.0319V11.707H21.0495V11.7158H21.0759V11.7246H21.0935V11.7334H21.1198V11.7422H21.1374V11.751H21.1638V11.7598H21.1813V11.7686H21.2077V11.7773H21.2253V11.7861H21.2517V11.7949H21.278V11.8037H21.2956V11.8125H21.322V11.8213H21.3396V11.8301H21.3659V11.8389H21.3835V11.8477H21.4099V11.8565H21.4362V11.8652H21.4538V11.874H21.4802V11.8828H21.4978V11.8916H21.5241V11.9004H21.5417V11.9092H21.5681V11.918H21.5944V11.9268H21.612V11.9356H21.6384V11.9443H21.656V11.9531H21.6823V11.9619H21.7087V11.9707H21.7263V11.9795H21.7526V11.9883H21.7702V11.9971H21.7966V12.0059H21.8142V12.0147H21.8405V12.0234H21.8669V12.0322H21.8845V12.041H21.9108V12.0498H21.9284V12.0586H21.9548V12.0674H21.9724V12.0762H21.9987V12.085H22.0251V12.0938H22.0427V12.1025H22.069V12.1113H22.0866V12.1201H22.113V12.1289H22.1393V12.1377H22.1569V12.1465H22.1833V12.1553H22.2009V12.1641H22.2272V12.1729H22.2536V12.1816H22.2712V12.1904H22.2975V12.1992H22.3151V12.208H22.3415V12.2168H22.3679V12.2256H22.3854V12.2344H22.4118V12.2432H22.4382V12.252H22.4557V12.2607H22.4821V12.2695H22.4997V12.2783H22.5261V12.2871H22.5524V12.2959H22.57V12.3047H22.5964V12.3135H22.6139V12.3223H22.6403V12.3311H22.6579V12.3398H22.6843V12.3486H22.7018V12.3574H22.7282V12.3662H22.7546V12.375H22.7721V12.3838H22.7985V12.3926H22.8161V12.4014H22.8425V12.4102H22.86V12.4189H22.8864V12.4277H22.904V12.4365H22.9303V12.4453H22.9479V12.4541H22.9743V12.4629H22.9919V12.4717H23.0182V12.4805H23.0358V12.4893H23.0622V12.498H23.0798V12.5068H23.1061V12.5156H23.1237V12.5244H23.1501V12.5332H23.1677V12.542H23.194V12.5508H23.2116V12.5596H23.238V12.5684H23.2555V12.5771H23.2819V12.5859H23.2995V12.5947H23.3171V12.6035H23.3434V12.6123H23.361V12.6211H23.3786V12.6299H23.405V12.6387H23.4225V12.6475H23.4489V12.6562H23.4665V12.665H23.4841V12.6738H23.5104V12.6826H23.528V12.6914H23.5544V12.7002H23.5719V12.709H23.5895V12.7178H23.6159V12.7266H23.6335V12.7353H23.6598V12.7441H23.6774V12.7529H23.695V12.7617H23.7214V12.7705H23.7389V12.7793H23.7653V12.7881H23.7829V12.7969H23.8005V12.8057H23.8268V12.8144H23.8444V12.8232H23.8708V12.832H23.8883V12.8408H23.9059V12.8496H23.9323V12.8584H23.9499V12.8672H23.9762V12.876H23.9938V12.8848H24.0114V12.8935H24.029V12.9023H24.0553V12.9111H24.0729V12.9199H24.0905V12.9287H24.1169V12.9375H24.1344V12.9463H24.152V12.9551H24.1696V12.9639H24.196V12.9726H24.2135V12.9814H24.2311V12.9902H24.2487V12.999H24.2751V13.0078H24.2926V13.0166H24.3102V13.0254H24.3278V13.0342H24.3542V13.043H24.3717V13.0517H24.3893V13.0605H24.4157V13.0693H24.4333V13.0781H24.4508V13.0869H24.4684V13.0957H24.4948V13.1045H24.5124V13.1133H24.5299V13.1221H24.5475V13.1308H24.5739V13.1396H24.5915V13.1484H24.609V13.1572H24.6266V13.166H24.653V13.1748H24.6706V13.1836H24.6881V13.1924H24.7145V13.2012H24.7321V13.2099H24.7497V13.2187H24.7672V13.2275H24.7848V13.2363H24.8024V13.2451H24.82V13.2539H24.8463V13.2627H24.8639V13.2715H24.8815V13.2803H24.8991V13.289H24.9166V13.2978H24.9342V13.3066H24.9518V13.3154H24.9782V13.3242H24.9957V13.333H25.0133V13.3418H25.0309V13.3506H25.0485V13.3594H25.0661V13.3681H25.0836V13.3769H25.11V13.3857H25.1276V13.3945H25.1452V13.4033H25.1627V13.4121H25.1803V13.4209H25.1979V13.4297H25.2155V13.4385H25.2418V13.4472H25.2594V13.456H25.277V13.4648H25.2946V13.4736H25.3122V13.4824H25.3297V13.4912H25.3473V13.5H25.3737V13.5088H25.3913V13.5176H25.4088V13.5264H25.4264V13.5351H25.444V13.5439H25.4616V13.5527H25.4791V13.5615H25.4967V13.5703H25.5143V13.5791H25.5319V13.5879H25.5495V13.5967H25.567V13.6054H25.5846V13.6142H25.6022V13.623H25.6198V13.6318H25.6373V13.6406H25.6549V13.6494H25.6725V13.6582H25.6989V13.667H25.7164V13.6758H25.734V13.6846H25.7516V13.6933H25.7692V13.7021H25.7868V13.7109H25.8043V13.7197H25.8219V13.7285H25.8395V13.7373H25.8571V13.7461H25.8746V13.7549H25.8922V13.7637H25.9098V13.7724H25.9274V13.7812H25.945V13.79H25.9625V13.7988H25.9801V13.8076H25.9977V13.8164H26.0153V13.8252H26.0328V13.834H26.0504V13.8428H26.068V13.8515H26.0856V13.8603H26.1032V13.8691H26.1207V13.8779H26.1383V13.8867H26.1559V13.8955H26.1735V13.9043H26.191V13.9131H26.2086V13.9219H26.2262V13.9306H26.2438V13.9394H26.2614V13.9482H26.2701V13.957H26.2877V13.9658H26.3053V13.9746H26.3229V13.9834H26.3405V13.9922H26.358V14.001H26.3756V14.0097H26.3932V14.0185H26.4108V14.0273H26.4283V14.0361H26.4459V14.0449H26.4635V14.0537H26.4723V14.0625H26.4899V14.0713H26.5074V14.0801H26.525V14.0888H26.5426V14.0976H26.5602V14.1064H26.5778V14.1152H26.5953V14.124H26.6129V14.1328H26.6305V14.1416H26.6481V14.1504H26.6656V14.1592H26.6744V14.1679H26.692V14.1767H26.7096V14.1855H26.7272V14.1943H26.7447V14.2031H26.7623V14.2119H26.7799V14.2207H26.7975V14.2295H26.8151V14.2383H26.8238V14.247H26.8414V14.2558H26.859V14.2646H26.8766V14.2734H26.8942V14.2822H26.903V14.291H26.9205V14.2998H26.9381V14.3086H26.9557V14.3174H26.9733V14.3261H26.9908V14.3349H26.9996V14.3437H27.0172V14.3525H27.0348V14.3613H27.0524V14.3701H27.0699V14.3789H27.0787V14.3877H27.0963V14.3965H27.1139V14.4052H27.1315V14.414H27.149V14.4228H27.1666V14.4316H27.1754V14.4404H27.193V14.4492H27.2106V14.458H27.2281V14.4668H27.2457V14.4756H27.2545V14.4843H27.2721V14.4931H27.2897V14.5019H27.3072V14.5107H27.3248V14.5195H27.3424V14.5283H27.3512V14.5371H27.3688V14.5459H27.3863V14.5547H27.4039V14.5634H27.4215V14.5722H27.4303V14.581H27.4479V14.5898H27.4654V14.5986H27.4742V14.6074H27.4918V14.6162H27.5094V14.625H27.527V14.6338H27.5358V14.6425H27.5533V14.6513H27.5709V14.6601H27.5797V14.6689H27.5973V14.6777H27.6149V14.6865H27.6324V14.6953H27.6412V14.7041H27.6588V14.7129H27.6764V14.7216H27.6852V14.7304H27.7027V14.7392H27.7203V14.748H27.7379V14.7568H27.7467V14.7656H27.7643V14.7744H27.7818V14.7832H27.7994V14.792H27.8082V14.8007H27.8258V14.8095H27.8434V14.8183H27.8522V14.8271H27.8697V14.8359H27.8873V14.8447H27.9049V14.8535H27.9137V14.8623H27.9313V14.8711H27.9488V14.8798H27.9576V14.8886H27.9752V14.8974H27.9928V14.9062H28.0104V14.915H28.0191V14.9238H28.0367V14.9326H28.0455V14.9414H28.0631V14.9502H28.0807V14.9589H28.0895V14.9677H28.107V14.9765H28.1246V14.9853H28.1334V14.9941H28.151V15.0029H28.1598V15.0117H28.1773V15.0205H28.1949V15.0293H28.2037V15.038H28.2213V15.0468H28.2389V15.0556H28.2477V15.0644H28.2652V15.0732H28.2828V15.082H28.2916V15.0908H28.3092V15.0996H28.318V15.1084H28.3355V15.1171H28.3531V15.1259H28.3619V15.1347H28.3795V15.1435H28.3971V15.1523H28.4059V15.1611H28.4234V15.1699H28.4322V15.1787H28.4498V15.1875H28.4674V15.1962H28.4762V15.205H28.4937V15.2138H28.5113V15.2226H28.5201V15.2314H28.5377V15.2402H28.5465V15.249H28.5641V15.2578H28.5816V15.2666H28.5904V15.2753H28.608V15.2841H28.6168V15.2929H28.6344V15.3017H28.6432V15.3105H28.6607V15.3193H28.6695V15.3281H28.6871V15.3369H28.6959V15.3457H28.7135V15.3544H28.731V15.3632H28.7398V15.372H28.7574V15.3808H28.7662V15.3896H28.7838V15.3984H28.7926V15.4072H28.8102V15.416H28.8189V15.4248H28.8365V15.4335H28.8453V15.4423H28.8629V15.4511H28.8805V15.4599H28.8892V15.4687H28.9068V15.4775H28.9156V15.4863H28.9332V15.4951H28.942V15.5039H28.9596V15.5127H28.9684V15.5214H28.9859V15.5302H28.9947V15.539H29.0123V15.5478H29.0299V15.5566H29.0387V15.5654H29.0562V15.5742H29.065V15.583H29.0826V15.5918H29.0914V15.6005H29.109V15.6093H29.1178V15.6181H29.1353V15.6269H29.1441V15.6357H29.1617V15.6445H29.1705V15.6533H29.1793V15.6621H29.1969V15.6709H29.2057V15.6796H29.2232V15.6884H29.232V15.6972H29.2496V15.706H29.2584V15.7148H29.276V15.7236H29.2848V15.7324H29.3023V15.7412H29.3111V15.75H29.3287V15.7587H29.3375V15.7675H29.3463V15.7763H29.3639V15.7851H29.3726V15.7939H29.3902V15.8027H29.399V15.8115H29.4166V15.8203H29.4254V15.8291H29.443V15.8378H29.4517V15.8466H29.4693V15.8554H29.4781V15.8642H29.4957V15.873H29.5045V15.8818H29.5133V15.8906H29.5308V15.8994H29.5396V15.9082H29.5572V15.9169H29.566V15.9257H29.5836V15.9345H29.5924V15.9433H29.6099V15.9521H29.6187V15.9609H29.6275V15.9697H29.6451V15.9785H29.6539V15.9873H29.6715V15.996H29.6803V16.0048H29.689V16.0136H29.7066V16.0224H29.7154V16.0312H29.7242V16.04H29.7418V16.0488H29.7506V16.0576H29.7681V16.0664H29.7769V16.0751H29.7857V16.0839H29.8033V16.0927H29.8121V16.1015H29.8297V16.1103H29.8385V16.1191H29.8472V16.1279H29.8648V16.1367H29.8736V16.1455H29.8824V16.1542H29.9V16.163H29.9088V16.1718H29.9263V16.1806H29.9351V16.1894H29.9439V16.1982H29.9615V16.207H29.9703V16.2158H29.9791V16.2246H29.9967V16.2333H30.0054V16.2421H30.023V16.2509H30.0318V16.2597H30.0406V16.2685H30.0582V16.2773H30.067V16.2861H30.0845V16.2949H30.0933V16.3037H30.1021V16.3124H30.1109V16.3212H30.1285V16.33H30.1373V16.3388H30.1461V16.3476H30.1636V16.3564H30.1724V16.3652H30.1812V16.374H30.1988V16.3828H30.2076V16.3915H30.2164V16.4003H30.234V16.4091H30.2427V16.4179H30.2515V16.4267H30.2603V16.4355H30.2779V16.4443H30.2867V16.4531H30.2955V16.4619H30.3131V16.4706H30.3218V16.4794H30.3306V16.4882H30.3482V16.497H30.357V16.5058H30.3658V16.5146H30.3834V16.5234H30.3922V16.5322H30.4009V16.541H30.4097V16.5497H30.4273V16.5585H30.4361V16.5673H30.4449V16.5761H30.4625V16.5849H30.4713V16.5937H30.48V16.6025H30.4976V16.6113H30.5064V16.6201H30.5152V16.6288H30.5328V16.6376H30.5416V16.6464H30.5504V16.6552H30.5591V16.664H30.5679V16.6728H30.5855V16.6816H30.5943V16.6904H30.6031V16.6992H30.6119V16.7079H30.6295V16.7167H30.6383V16.7255H30.647V16.7343H30.6558V16.7431H30.6734V16.7519H30.6822V16.7607H30.691V16.7695H30.6998V16.7783H30.7174V16.787H30.7261V16.7958H30.7349V16.8046H30.7437V16.8134H30.7525V16.8222H30.7701V16.831H30.7789V16.8398H30.7877V16.8486H30.7965V16.8574H30.814V16.8661H30.8228V16.8749H30.8316V16.8837H30.8404V16.8925H30.858V16.9013H30.8668V16.9101H30.8756V16.9189H30.8843V16.9277H30.9019V16.9365H30.9107V16.9452H30.9195V16.954H30.9283V16.9628H30.9371V16.9716H30.9547V16.9804H30.9634V16.9892H30.9722V16.998H30.981V17.0068H30.9898V17.0156H31.0074V17.0243H31.0162V17.0331H31.025V17.0419H31.0338V17.0507H31.0425V17.0595H31.0513V17.0683H31.0689V17.0771H31.0777V17.0859H31.0865V17.0947H31.0953V17.1034H31.1041V17.1122H31.1129V17.121H31.1304V17.1298H31.1392V17.1386H31.148V17.1474H31.1568V17.1562H31.1656V17.165H31.1744V17.1738H31.192V17.1825H31.2007V17.1913H31.2095V17.2001H31.2183V17.2089H31.2271V17.2177H31.2359V17.2265H31.2535V17.2353H31.2623V17.2441H31.2711V17.2529H31.2798V17.2616H31.2886V17.2704H31.2974V17.2792H31.315V17.288H31.3238V17.2968H31.3326V17.3056H31.3414V17.3144H31.3502V17.3232H31.3589V17.332H31.3677V17.3407H31.3853V17.3495H31.3941V17.3583H31.4029V17.3671H31.4117V17.3759H31.4205V17.3847H31.4293V17.3935H31.438V17.4023H31.4468V17.4111H31.4556V17.4199H31.4644V17.4286H31.482V17.4374H31.4908V17.4462H31.4996V17.455H31.5084V17.4638H31.5171V17.4726H31.5259V17.4814H31.5347V17.4902H31.5435V17.499H31.5523V17.5077H31.5611V17.5165H31.5699V17.5253H31.5875V17.5341H31.5962V17.5429H31.605V17.5517H31.6138V17.5605H31.6226V17.5693H31.6314V17.5781H31.6402V17.5868H31.649V17.5956H31.6578V17.6044H31.6666V17.6132H31.6841V17.622H31.6929V17.6308H31.7017V17.6396H31.7105V17.6484H31.7193V17.6572H31.7281V17.6659H31.7369V17.6747H31.7457V17.6835H31.7544V17.6923H31.7632V17.7011H31.772V17.7099H31.7808V17.7187H31.7896V17.7275H31.7984V17.7363H31.8072V17.745H31.816V17.7538H31.8248V17.7626H31.8335V17.7714H31.8423V17.7802H31.8599V17.789H31.8687V17.7978H31.8775V17.8066H31.8863V17.8154H31.8951V17.8241H31.9039V17.8329H31.9126V17.8417H31.9214V17.8505H31.9302V17.8593H31.939V17.8681H31.9478V17.8769H31.9566V17.8857H31.9654V17.8945H31.9742V17.9032H31.983V17.912H31.9917V17.9208H32.0005V17.9296H32.0093V17.9384H32.0181V17.9472H32.0269V17.956H32.0357V17.9648H32.0445V17.9736H32.0533V17.9823H32.0621V17.9911H32.0708V17.9999H32.0796V18.0087H32.0884V18.0175H32.0972V18.0263H32.106V18.0351H32.1148V18.0439H32.1236V18.0527H32.1324V18.0614H32.1412V18.0702H32.1499V18.079H32.1587V18.0878H32.1675V18.0966H32.1763V18.1054H32.1851V18.1142H32.1939V18.123H32.2027V18.1318H32.2115V18.1405H32.2203V18.1493H32.229V18.1581H32.2378V18.1669H32.2466V18.1757H32.2554V18.1845H32.2642V18.1933H32.273V18.2021H32.2818V18.2109H32.2906V18.2284H32.2994V18.2372H32.3081V18.246H32.3169V18.2548H32.3257V18.2636H32.3345V18.2724H32.3433V18.2812H32.3521V18.29H32.3609V18.2987H32.3697V18.3075H32.3785V18.3163H32.3872V18.3251H32.396V18.3339H32.4048V18.3427H32.4136V18.3515H32.4224V18.3603H32.4312V18.3691H32.44V18.3778H32.4488V18.3866H32.4576V18.4042H32.4664V18.413H32.4751V18.4218H32.4839V18.4306H32.4927V18.4394H32.5015V18.4482H32.5103V18.4569H32.5191V18.4657H32.5279V18.4745H32.5367V18.4921H32.5454V18.5009H32.5542V18.5097H32.563V18.5185H32.5718V18.5273H32.5806V18.536H32.5894V18.5448H32.5982V18.5536H32.607V18.5624H32.6158V18.5712H32.6245V18.5888H32.6333V18.5976H32.6421V18.6064H32.6509V18.6151H32.6597V18.6239H32.6685V18.6327H32.6773V18.6415H32.6861V18.6503H32.6949V18.6591H32.7037V18.6767H32.7124V18.6855H32.7212V18.6942H32.73V18.703H32.7388V18.7118H32.7476V18.7206H32.7564V18.7382H32.7652V18.747H32.774V18.7558H32.7828V18.7646H32.7915V18.7733H32.8003V18.7909H32.8091V18.7997H32.8179V18.8085H32.8267V18.8173H32.8355V18.8261H32.8443V18.8437H32.8531V18.8524H32.8619V18.8612H32.8706V18.87H32.8794V18.8788H32.8882V18.8876H32.897V18.9052H32.9058V18.914H32.9146V18.9228H32.9234V18.9315H32.9322V18.9403H32.941V18.9579H32.9497V18.9667H32.9585V18.9755H32.9673V18.9843H32.9761V18.9931H32.9849V19.0106H32.9937V19.0194H33.0025V19.0282H33.0113V19.037H33.0201V19.0546H33.0288V19.0634H33.0376V19.0722H33.0464V19.0897H33.0552V19.0985H33.064V19.1073H33.0728V19.1161H33.0816V19.1337H33.0904V19.1425H33.0992V19.1513H33.1079V19.1688H33.1167V19.1776H33.1255V19.1864H33.1343V19.1952H33.1431V19.2128H33.1519V19.2216H33.1607V19.2304H33.1695V19.2392H33.1783V19.2567H33.187V19.2655H33.1958V19.2743H33.2046V19.2919H33.2134V19.3007H33.2222V19.3095H33.231V19.3183H33.2398V19.3358H33.2486V19.3446H33.2574V19.3622H33.2661V19.371H33.2749V19.3798H33.2837V19.3974H33.2925V19.4062H33.3013V19.4237H33.3101V19.4325H33.3189V19.4413H33.3277V19.4589H33.3365V19.4677H33.3452V19.4765H33.354V19.494H33.3628V19.5028H33.3716V19.5204H33.3804V19.5292H33.3892V19.538H33.398V19.5556H33.4068V19.5644H33.4156V19.5819H33.4243V19.5907H33.4331V19.5995H33.4419V19.6171H33.4507V19.6259H33.4595V19.6435H33.4683V19.6522H33.4771V19.6698H33.4859V19.6786H33.4947V19.6962H33.5034V19.705H33.5122V19.7226H33.521V19.7313H33.5298V19.7489H33.5386V19.7577H33.5474V19.7753H33.5562V19.7841H33.565V19.8017H33.5738V19.8104H33.5825V19.828H33.5913V19.8368H33.6001V19.8544H33.6089V19.8632H33.6177V19.8808H33.6265V19.8895H33.6353V19.9071H33.6441V19.9159H33.6529V19.9335H33.6616V19.9423H33.6704V19.9599H33.6792V19.9774H33.688V19.9862H33.6968V20.0038H33.7056V20.0214H33.7144V20.0302H33.7232V20.0477H33.732V20.0653H33.7407V20.0741H33.7495V20.0917H33.7583V20.1093H33.7671V20.1181H33.7759V20.1356H33.7847V20.1532H33.7935V20.162H33.8023V20.1796H33.8111V20.1972H33.8198V20.2059H33.8286V20.2235H33.8374V20.2411H33.8462V20.2587H33.855V20.2675H33.8638V20.285H33.8726V20.3026H33.8814V20.3202H33.8902V20.3378H33.8989V20.3554H33.9077V20.3641H33.9165V20.3817H33.9253V20.3993H33.9341V20.4169H33.9429V20.4345H33.9517V20.452H33.9605V20.4696H33.9693V20.4784H33.978V20.496H33.9868V20.5136H33.9956V20.5311H34.0044V20.5487H34.0132V20.5663H34.022V20.5839H34.0308V20.6014H34.0396V20.619H34.0484V20.6366H34.0571V20.663H34.0659V20.6805H34.0747V20.6981H34.0835V20.7157H34.0923V20.7333H34.1011V20.7509H34.1099V20.7684H34.1187V20.786H34.1275V20.8036H34.1362V20.83H34.145V20.8475H34.1538V20.8651H34.1626V20.8915H34.1714V20.9091H34.1802V20.9354H34.189V20.953H34.1978V20.9706H34.2066V20.9969H34.2153V21.0145H34.2241V21.0409H34.2329V21.0585H34.2417V21.076H34.2505V21.1024H34.2593V21.1288H34.2681V21.1552H34.2769V21.1815H34.2857V21.1991H34.2944V21.2255H34.3032V21.2518H34.312V21.2782H34.3208V21.3046H34.3296V21.3309H34.3384V21.3573H34.3472V21.3837H34.356V21.41H34.3648V21.4452H34.3736V21.4803H34.3823V21.5067H34.3911V21.5419H34.3999V21.5682H34.4087V21.6034H34.4175V21.6385H34.4263V21.6825H34.4351V21.7176H34.4439V21.7616H34.4527V21.8055H34.4614V21.8495H34.4702V21.9022H34.479V21.9637H34.4878V22.034H34.4966V22.0956H34.5054V22.2186H34.5142V22.3417H34.5054V22.368H34.4966V22.3944H34.4878V22.4208H34.479V22.4559H34.4702V22.4823H34.4614V22.5086H34.4527V22.535H34.4439V22.5702H34.4351V22.5965H34.4263V22.6229H34.4175V22.6493H34.4087V22.6844H34.3999V22.7108H34.3911V22.7372H34.3823V22.7635H34.3736V22.7899H34.3648V22.825H34.356V22.8514H34.3472V22.8778H34.3384V22.9042H34.3296V22.9393H34.3208V22.9657H34.312V22.992H34.3032V23.0184H34.2944V23.0536H34.2857V23.0799H34.2769V23.1063H34.2681V23.1327H34.2593V23.159H34.2505V23.1942H34.2417V23.2206H34.2329V23.2469H34.2241V23.2733H34.2153V23.3084H34.2066V23.3348H34.1978V23.3612H34.189V23.3875H34.1802V23.4139H34.1714V23.4491H34.1626V23.4754H34.1538V23.5018H34.145V23.5282H34.1362V23.5633H34.1275V23.5897H34.1187V23.6161H34.1099V23.6424H34.1011V23.6776H34.0923V23.7039H34.0835V23.7303H34.0747V23.7567H34.0659V23.783H34.0571V23.8182H34.0484V23.8446H34.0396V23.8709H34.0308V23.8973H34.022V23.9325H34.0132V23.9588H34.0044V23.9852H33.9956V24.0116H33.9868V24.0467H33.978V24.0731H33.9693V24.0994H33.9605V24.1258H33.9517V24.1522H33.9429V24.1873H33.9341V24.2137H33.9253V24.2401H33.9165V24.2664H33.9077V24.3016H33.8989V24.328H33.8902V24.3543H33.8814V24.3807H33.8726V24.4071H33.8638V24.4422H33.855V24.4686H33.8462V24.4949H33.8374V24.5213H33.8286V24.5565H33.8198V24.5828H33.8111V24.6092H33.8023V24.6356H33.7935V24.6707H33.7847V24.6971H33.7759V24.7235H33.7671V24.7498H33.7583V24.7762H33.7495V24.8114H33.7407V24.8377H33.732V24.8641H33.7232V24.8905H33.7144V24.9256H33.7056V24.952H33.6968V24.9783H33.688V25.0047H33.6792V25.0311H33.6704V25.0662H33.6616V25.0926H33.6529V25.119H33.6441V25.1453H33.6353V25.1805H33.6265V25.2069H33.6177V25.2332H33.6089V25.2596H33.6001V25.2947H33.5913V25.3211H33.5825V25.3475H33.5738V25.3738H33.565V25.4002H33.5562V25.4354H33.5474V25.4617H33.5386V25.4881H33.5298V25.5145H33.521V25.5496H33.5122V25.576H33.5034V25.6024H33.4947V25.6287H33.4859V25.6639H33.4771V25.6902H33.4683V25.7166H33.4595V25.743H33.4507V25.7693H33.4419V25.8045H33.4331V25.8309H33.4243V25.8572H33.4156V25.8836H33.4068V25.9188H33.398V25.9451H33.3892V25.9715H33.3804V25.9979H33.3716V26.0242H33.3628V26.0594H33.354V26.0857H33.3452V26.1121H33.3365V26.1385H33.3277V26.1736H33.3189V26.2H33.3101V26.2264H33.3013V26.2527H33.2925V26.2879H33.2837V26.3143H33.2749V26.3406H33.2661V26.367H33.2574V26.3934H33.2486V26.4285H33.2398V26.4549H33.231V26.4812H33.2222V26.5076H33.2134V26.5428H33.2046V26.5691H33.1958V26.5955H33.187V26.6219H33.1783V26.657H33.1695V26.6834H33.1607V26.7098H33.1519V26.7361H33.1431V26.7625H33.1343V26.7977H33.1255V26.824H33.1167V26.8504H33.1079V26.8768H33.0992V26.9119H33.0904V26.9383H33.0816V26.9646H33.0728V26.991H33.064V27.0174H33.0552V27.0525H33.0464V27.0789H33.0376V27.1053H33.0288V27.1316H33.0201V27.1668H33.0113V27.1932H33.0025V27.2195H32.9937V27.2459H32.9849V27.281H32.9761V27.3074H32.9673V27.3338H32.9585V27.3601H32.9497V27.3865H32.941V27.4217H32.9322V27.448H32.9234V27.4744H32.9146V27.5008H32.9058V27.5359H32.897V27.5623H32.8882V27.5887H32.8794V27.615H32.8706V27.6502H32.8619V27.6765H32.8531V27.7029H32.8443V27.7293H32.8355V27.7556H32.8267V27.7908H32.8179V27.8172H32.8091V27.8435H32.8003V27.8699H32.7915V27.9051H32.7828V27.9314H32.774V27.9578H32.7652V27.9842H32.7564V28.0105H32.7476V28.0457H32.7388V28.072H32.73V28.0984H32.7212V28.1248H32.7124V28.1599H32.7037V28.1863H32.6949V28.2127H32.6861V28.239H32.6773V28.2742H32.6685V28.3006H32.6597V28.3269H32.6509V28.3533H32.6421V28.3797H32.6333V28.4148H32.6245V28.4412H32.6158V28.4675H32.607V28.4939H32.5982V28.5291H32.5894V28.5554H32.5806V28.5818H32.5718V28.6082H32.563V28.6345H32.5542V28.6697H32.5454V28.6961H32.5367V28.7224H32.5279V28.7488H32.5191V28.784H32.5103V28.8103H32.5015V28.8367H32.4927V28.8631H32.4839V28.8982H32.4751V28.9246H32.4664V28.9509H32.4576V28.9773H32.4488V29.0037H32.44V29.0388H32.4312V29.0652H32.4224V29.0916H32.4136V29.1179H32.4048V29.1531H32.396V29.1795H32.3872V29.2058H32.3785V29.2322H32.3697V29.2673H32.3609V29.2937H32.3521V29.3201H32.3433V29.3464H32.3345V29.3728H32.3257V29.408H32.3169V29.4343H32.3081V29.4607H32.2994V29.4871H32.2906V29.5222H32.2818V29.5486H32.273V29.575H32.2642V29.6013H32.2554V29.6277H32.2466V29.6628H32.2378V29.6892H32.229V29.7156H32.2203V29.7419H32.2115V29.7771H32.2027V29.8035H32.1939V29.8298H32.1851V29.8562H32.1763V29.8914H32.1675V29.9177H32.1587V29.9441H32.1499V29.9617" fill="url(#paint5_linear_301_83)"/>
    </g>
  </g>
  <path d="M34.5998 63.6724C31.4427 63.6724 28.7169 62.6446 26.4229 60.5888L28.9281 57.5878C30.8185 59.148 32.7367 59.928 34.6823 59.928C35.5449 59.928 36.2242 59.7628 36.7199 59.4323C37.2154 59.102 37.4632 58.6435 37.4632 58.0558C37.4632 57.5051 37.2059 57.0604 36.6923 56.7204C36.1783 56.381 35.141 56.0093 33.5812 55.6054C32.48 55.3301 31.5893 55.0596 30.9107 54.7932C30.2313 54.5273 29.5842 54.1738 28.9696 53.7332C28.3544 53.2928 27.9048 52.7378 27.6205 52.0675C27.3357 51.3977 27.1937 50.5945 27.1937 49.6586C27.1937 47.9148 27.8221 46.5107 29.0796 45.446C30.3367 44.3818 31.9569 43.8492 33.9391 43.8492C36.6738 43.8492 39.0601 44.666 41.0974 46.2995L38.8949 49.4933C37.0778 48.2269 35.4074 47.5935 33.884 47.5935C33.0946 47.5935 32.4843 47.7544 32.0532 48.0754C31.6218 48.3967 31.4062 48.8144 31.4062 49.3281C31.4062 49.9523 31.6719 50.4203 32.2047 50.7321C32.7367 51.0446 33.8565 51.4205 35.5635 51.8611C37.656 52.4116 39.1978 53.1184 40.1889 53.981C41.1799 54.844 41.6755 56.0828 41.6755 57.6979C41.6755 59.5699 41.0285 61.034 39.7345 62.0892C38.4405 63.1449 36.7289 63.6724 34.5998 63.6724Z" style="fill: rgb(83, 82, 88);"/>
  <path d="M43.2723 63.397V43.2984H47.4573V54.0085L52.3579 48.6397H57.3688L51.7523 54.4491L57.5615 63.397H52.7709L48.9165 57.3674L47.4573 58.9092V63.397H43.2723Z" style="fill: rgb(83, 82, 88);"/>
  <path d="M61.0308 67.8845C59.7092 67.8845 58.4701 67.5446 57.3138 66.8657L58.718 63.8373C59.3602 64.2227 59.9569 64.4154 60.5076 64.4154C61.1682 64.4154 61.6545 64.0941 61.9667 63.4518L56.1851 48.6395H60.6176L63.9766 58.6887L67.1979 48.6395H71.5478L65.8763 63.7546C65.3072 65.2779 64.665 66.3469 63.949 66.9622C63.2331 67.5768 62.2601 67.8845 61.0308 67.8845Z" style="fill: rgb(83, 82, 88);"/>
  <path d="M73.3649 63.397V44.1192H74.7897V62.0795H86.1093V63.397H73.3649Z" style="fill: rgb(83, 82, 88);"/>
  <path d="M88.6382 63.397V49.3621H89.982V63.397H88.6382ZM88.4764 45.692V43.8503H90.1437V45.692H88.4764Z" style="fill: rgb(83, 82, 88);"/>
  <path d="M93.6278 63.397V49.3621H94.9857V51.97C96.1054 50.0073 97.7946 49.026 100.053 49.026C101.792 49.026 103.161 49.5592 104.16 50.6257C105.16 51.6923 105.659 53.0858 105.659 54.8066V63.397H104.315V55.0486C104.315 53.5878 103.921 52.4251 103.132 51.56C102.343 50.6953 101.25 50.2627 99.8521 50.2627C98.4626 50.2627 97.3042 50.7356 96.377 51.6811C95.4489 52.6267 94.9857 53.8253 94.9857 55.2771V63.397H93.6278Z" style="fill: rgb(83, 82, 88);"/>
  <path d="M109.318 55.7206H119.534C119.489 54.9946 119.35 54.3114 119.117 53.6705C118.885 53.0298 118.566 52.4518 118.163 51.9363C117.76 51.421 117.242 51.0133 116.611 50.7129C115.979 50.4128 115.273 50.2625 114.494 50.2625C113.113 50.2625 111.937 50.7825 110.964 51.822C109.992 52.8618 109.443 54.1611 109.318 55.7206ZM107.892 56.3524C107.892 55.3489 108.063 54.3964 108.403 53.4956C108.744 52.5951 109.205 51.8176 109.788 51.1632C110.371 50.5092 111.076 49.9893 111.905 49.6039C112.734 49.2186 113.615 49.0258 114.547 49.0258C115.829 49.0258 116.964 49.3508 117.955 50.0005C118.945 50.6503 119.7 51.531 120.22 52.6421C120.74 53.7534 121 54.9993 121 56.3793C121 56.6035 120.991 56.7873 120.973 56.9304H109.318C109.434 58.6155 110.024 59.9575 111.085 60.9567C112.147 61.9563 113.395 62.4557 114.829 62.4557C116.675 62.4557 118.28 61.7253 119.642 60.2644L120.583 61.0845C119.794 61.9361 118.945 62.5902 118.036 63.0472C117.126 63.5044 116.04 63.7329 114.776 63.7329C113.861 63.7329 112.985 63.5536 112.147 63.1952C111.309 62.8368 110.576 62.3414 109.95 61.7097C109.322 61.0779 108.822 60.2982 108.45 59.3705C108.079 58.4428 107.892 57.437 107.892 56.3524Z" style="fill: rgb(83, 82, 88);"/>
  <path d="M28.1033 77.9753V71.7037H32.6364V72.3488H28.8111V74.49H32.2336V75.1353H28.8111V77.3302H32.6815V77.9753H28.1033Z" style="fill: rgb(83, 82, 88);"/>
  <path d="M37.4833 77.9753L39.8934 74.7768L37.5731 71.7037H38.4063L40.3327 74.2662L42.2407 71.7037H43.0649L40.7443 74.7678L43.1547 77.9753H42.3126L40.3057 75.2783L38.2987 77.9753H37.4833Z" style="fill: rgb(83, 82, 88);"/>
  <path d="M49.0141 75.1171H50.5635C51.0833 75.1171 51.4999 74.9903 51.8136 74.7366C52.1272 74.483 52.2839 74.144 52.2839 73.7197C52.2839 73.2836 52.1329 72.9477 51.8314 72.7118C51.5301 72.476 51.1192 72.3578 50.5993 72.3578H49.0141V75.1171ZM48.3063 77.9753V71.7037H50.6533C51.3703 71.7037 51.9403 71.8829 52.3647 72.2414C52.7883 72.5999 53.0005 73.0894 53.0005 73.7107C53.0005 74.362 52.7659 74.8664 52.2973 75.2247C51.8285 75.5832 51.2413 75.7625 50.5368 75.7625H49.0141V77.9753H48.3063Z" style="fill: rgb(83, 82, 88);"/>
  <path d="M58.851 74.9021H60.7774C61.2552 74.9021 61.643 74.7857 61.9421 74.5528C62.2408 74.32 62.3895 74.0006 62.3895 73.5943C62.3895 73.2058 62.2482 72.903 61.9645 72.6847C61.6806 72.4667 61.288 72.3578 60.786 72.3578H58.851V74.9021ZM58.1432 77.9753V71.7037H60.8401C61.6102 71.7037 62.2049 71.9128 62.6228 72.3308C62.9452 72.6537 63.1066 73.0716 63.1066 73.5851C63.1066 74.0871 62.951 74.4933 62.6406 74.8034C62.3301 75.1142 61.9179 75.3176 61.4044 75.4129L63.3306 77.9753H62.4615L60.6429 75.5383H58.851V77.9753H58.1432Z" style="fill: rgb(83, 82, 88);"/>
  <path d="M68.4731 77.9753V71.7037H73.0062V72.3488H69.1809V74.49H72.6028V75.1353H69.1809V77.3302H73.0511V77.9753H68.4731Z" style="fill: rgb(83, 82, 88);"/>
  <path d="M80.4782 78.0645C79.5165 78.0645 78.6623 77.7301 77.9158 77.0613L78.3548 76.5416C78.6892 76.8461 79.0252 77.0701 79.3624 77.2136C79.6998 77.3567 80.0808 77.4286 80.5049 77.4286C80.9228 77.4286 81.2604 77.3285 81.517 77.1284C81.7741 76.9283 81.9026 76.6672 81.9026 76.3445C81.9026 76.0397 81.7891 75.798 81.5619 75.6188C81.3348 75.4395 80.905 75.2846 80.272 75.153C79.525 74.9916 78.9878 74.7737 78.6592 74.4988C78.3308 74.224 78.1665 73.833 78.1665 73.3253C78.1665 72.8297 78.3608 72.4206 78.749 72.0977C79.137 71.7755 79.6298 71.6142 80.2271 71.6142C81.0571 71.6142 81.7919 71.8708 82.4311 72.3847L82.019 72.9312C81.4638 72.4769 80.8601 72.25 80.2091 72.25C79.8087 72.25 79.4865 72.3473 79.2416 72.5414C78.997 72.7353 78.8742 72.9818 78.8742 73.2804C78.8742 73.5909 78.992 73.836 79.2281 74.0153C79.4643 74.194 79.9135 74.3553 80.5764 74.4988C81.2875 74.6544 81.8056 74.8708 82.1309 75.1485C82.4564 75.4263 82.619 75.8069 82.619 76.2908C82.619 76.8223 82.4189 77.251 82.019 77.5763C81.6185 77.9018 81.1053 78.0645 80.4782 78.0645Z" style="fill: rgb(83, 82, 88);"/>
  <path d="M89.9749 78.0645C89.0134 78.0645 88.1592 77.7301 87.4125 77.0613L87.8516 76.5416C88.1859 76.8461 88.5219 77.0701 88.8595 77.2136C89.1967 77.3567 89.5772 77.4286 90.0016 77.4286C90.4199 77.4286 90.7576 77.3285 91.0142 77.1284C91.2706 76.9283 91.3996 76.6672 91.3996 76.3445C91.3996 76.0397 91.2858 75.798 91.0591 75.6188C90.832 75.4395 90.4015 75.2846 89.7687 75.153C89.0222 74.9916 88.4845 74.7737 88.1559 74.4988C87.8273 74.224 87.6636 73.833 87.6636 73.3253C87.6636 72.8297 87.8573 72.4206 88.2457 72.0977C88.6342 71.7755 89.1265 71.6142 89.7238 71.6142C90.5542 71.6142 91.2891 71.8708 91.9278 72.3847L91.516 72.9312C90.9605 72.4769 90.357 72.25 89.7062 72.25C89.3059 72.25 88.9834 72.3473 88.7385 72.5414C88.4935 72.7353 88.3714 72.9818 88.3714 73.2804C88.3714 73.5909 88.4891 73.836 88.7249 74.0153C88.961 74.194 89.4102 74.3553 90.0735 74.4988C90.7842 74.6544 91.3023 74.8708 91.628 75.1485C91.9535 75.4263 92.1162 75.8069 92.1162 76.2908C92.1162 76.8223 91.9161 77.251 91.516 77.5763C91.1156 77.9018 90.602 78.0645 89.9749 78.0645Z" style="fill: rgb(83, 82, 88);"/>
</svg>